<svg xmlns="http://www.w3.org/2000/svg" viewBox="0 0 1444.43 406.54"><defs><style>.cls-1{fill:#fef6ec;}.cls-2{fill:#6b01ff;}</style></defs><g id="Artwork"><path class="cls-1" d="M352,378.31c0,.47,0,.95,0,1.42H318.3l0-1.42Z"/><path class="cls-2" d="M392.49,197.25c-3.88,3.68-7.63,7.51-11.69,11-2.94,2.52-3.87,5.6-4,9.2-.85,29.08-10.19,55.47-25.68,79.81a184.1,184.1,0,0,1-22.91,28.62c-18.54,19.31-40.14,34.48-63.49,47.28-7.19,3.95-14.58,7.53-21.92,11.21a11.4,11.4,0,0,1-10.27,0c-19-8.72-37.25-18.8-54.15-31.19-25.91-19-47.74-41.64-62.86-70.29-9.41-17.83-15.73-36.66-18-56.72a165.86,165.86,0,0,1-.94-18.52c-.09-30,0-60-.1-89.95,0-4.94,1.09-7.27,6.68-9.18,9.08-3.11,18.33-5.7,27.44-8.72,27.16-9,53.47-20.16,79.75-31.41,8.18-3.5,16.21-7.37,24.28-11.11a7.54,7.54,0,0,1,6.62,0C261,66,280.75,74.89,300.7,83.23a692.92,692.92,0,0,0,68.74,24.44,22,22,0,0,1,3.89,1.5c3.28,1.7,5.31,4,5.24,8.16-.21,13.78-.12,27.55-.09,41.33,0,7.16.14,14.32.29,21.48a5.43,5.43,0,0,1-2,4.52c-5,4.58-9.95,9.31-14.92,14-.49.47-1,.92-1.87,1.72-.13-2.63-.36-4.87-.35-7.11q.09-30.88.25-61.77c0-5.54-1.84-8-7.15-9.78-10.88-3.65-21.77-7.25-32.59-11.06-6.49-2.28-12.91-4.79-19.27-7.43-16.21-6.72-32.37-13.57-48.56-20.35-3.46-1.45-7-2.71-10.41-4.29s-6.74-.73-10,.68q-21.47,9.23-43,18.4a583.54,583.54,0,0,1-65.25,23.7,23.27,23.27,0,0,0-4.25,1.7,7,7,0,0,0-4.08,6.91c.12,6.38,0,12.77,0,19.16-.08,11.47-.29,22.95-.28,34.42,0,10.64.13,21.28.43,31.91.31,10.84,2.68,21.36,5.56,31.76a142.53,142.53,0,0,0,25.7,50.39,209.34,209.34,0,0,0,58.55,50.88c8.31,4.92,16.93,9.31,25.36,14a13.42,13.42,0,0,0,14.06-.19c10.32-5.89,20.75-11.61,30.86-17.85a205.32,205.32,0,0,0,40.76-33c16-16.8,28.55-35.71,35-58.25,1.85-6.47,3.38-13,5.05-19.55.06-.25,0-.52-.47-1.2-1.72,1.87-3.38,3.8-5.17,5.6q-20.12,20.16-40.28,40.28Q296.21,292.58,282,306.82a19.66,19.66,0,0,1-1.89,1.64c-3.34,2.6-6.53,2.46-9.51-.53q-16.76-16.74-33.46-33.53c-9.34-9.34-18.6-18.76-28.11-27.93-4.17-4-4.18-8.74-3.16-13.68.69-3.29,4.12-4.37,6.66-2.11,5.86,5.23,11.65,10.54,17.22,16.07,12.3,12.18,24.43,24.54,36.67,36.78a45,45,0,0,0,4.77,4.05,5.93,5.93,0,0,0,8-.35c7.6-7.34,15.12-14.77,22.63-22.2q22.83-22.6,45.62-45.27c9.75-9.72,19.35-19.6,29.11-29.31,6-5.93,12.09-11.71,18.19-17.5a3,3,0,0,0,.94-3.64c-2.94-8.56,1.17-16.95,7.28-21.39a20.49,20.49,0,0,1,22.79-.24c7.19,4.89,10.14,11.84,8.77,20.21-1.43,8.68-7,14.15-15.54,16-3.13.68-6.61,0-9.88-.38a4,4,0,0,0-3.87,1.11c-4.15,4.21-8.39,8.32-12.6,12.47C392.59,197.14,392.54,197.2,392.49,197.25Z"/><path class="cls-2" d="M274,225.54v-2.86q0-38.31,0-76.6a20.38,20.38,0,0,1,.31-3.31,7.25,7.25,0,0,1,7.26-6.21c11.9,0,23.79,0,35.69-.05,1.79,0,2.28.72,2.28,2.35q-.06,37.68-.07,75.35c0,5.84-.23,11.68-.22,17.52a8,8,0,0,1-2.42,6Q301,253.66,285.27,269.6c-3.26,3.28-6.13,3.53-9.46.39-5.87-5.53-11.49-11.33-17.22-17q-19.51-19.31-39-38.59c-6.14-6.06-12.34-12.06-18.53-18.06a13.35,13.35,0,0,0-2.45-1.93c-3.51-2-7.42-.15-7.59,3.91-.3,7.15-.33,14.32-.44,21.48a49.56,49.56,0,0,0,.1,7.71,19.92,19.92,0,0,0,2.05,5.28,4.56,4.56,0,0,0,1.42,1.52c5.58,4.21,7.05,9.83,7,16.68-.33,20.93-.14,41.88-.17,62.82,0,1.51-.14,3-.25,5-1.46-.9-2.64-1.56-3.76-2.31-13-8.66-24.75-18.69-34.4-31a57.76,57.76,0,0,1-6.27-10.06,17,17,0,0,1-1.65-7.2c-.15-13.64,0-27.27-.07-40.91q-.12-40.59-.28-81.17c0-.84,0-1.67,0-2.51.33-4.82,1.84-6.21,6.67-6.21,6.61,0,13.22,0,19.83,0a9.43,9.43,0,0,1,7.09,3q31,31,62.05,61.89c7.39,7.36,14.86,14.64,22.3,21.95C272.57,224.54,273,224.82,274,225.54Z"/><path class="cls-2" d="M392.65,197.09v.14l-.15,0C392.54,197.2,392.59,197.14,392.65,197.09Z"/><path class="cls-2" d="M508.93,271.89V141.1h25.9l61.79,92.31V141.1h24.61V271.89H596.07l-62.53-91.57v91.57Z"/><path class="cls-2" d="M691,273.19q-14.81,0-25.71-6.11a42.28,42.28,0,0,1-16.93-17.29q-6-11.21-6-26.55t6.1-26.64a43.58,43.58,0,0,1,16.93-17.48q10.81-6.21,25.62-6.2t25.62,6.29a43,43,0,0,1,16.75,17.57q5.91,11.29,5.92,26.83,0,15.16-5.83,26.36a40.84,40.84,0,0,1-16.65,17.21Q705.95,273.18,691,273.19Zm-.18-21.83q8.88,0,14.33-4a22.85,22.85,0,0,0,8-10.36,37.12,37.12,0,0,0,2.5-13.6,38.55,38.55,0,0,0-2.5-13.78A23.67,23.67,0,0,0,705.22,199q-5.37-4.06-14.43-4.07-8.88,0-14.34,4.07a23.43,23.43,0,0,0-8,10.55A38.32,38.32,0,0,0,666,223.42a37.62,37.62,0,0,0,2.49,13.79,22.32,22.32,0,0,0,8,10.26Q681.9,251.36,690.79,251.36Z"/><path class="cls-2" d="M799.93,273.19q-15.16,0-25.62-6.2A40.24,40.24,0,0,1,758.4,249.6q-5.46-11.19-5.45-26.18t5.64-26.36a41.67,41.67,0,0,1,16.46-17.76q10.83-6.37,26.18-6.38a49.8,49.8,0,0,1,20.44,4,34.9,34.9,0,0,1,14.53,11.74A40.14,40.14,0,0,1,843,207.7H819.36q-1.85-6.84-6.85-9.9a21.84,21.84,0,0,0-11.65-3.05q-9.06,0-14.24,4.25a24,24,0,0,0-7.5,10.92,40.94,40.94,0,0,0-2.31,13.5,38.66,38.66,0,0,0,2.41,13.79,22.79,22.79,0,0,0,7.67,10.36q5.28,4,13.6,4a23.67,23.67,0,0,0,12.21-3.14,15,15,0,0,0,7-9.81H844q-1.31,11.66-7.5,19.34a37.84,37.84,0,0,1-15.72,11.47A56,56,0,0,1,799.93,273.19Z"/><path class="cls-2" d="M860.24,271.89V141.1h24v45.32a32.59,32.59,0,0,1,9.35-7.95,41.43,41.43,0,0,1,10.82-4.26A46.58,46.58,0,0,1,915,172.92q13.69,0,21.56,6.1a33.07,33.07,0,0,1,11.19,16.28,73.6,73.6,0,0,1,3.33,22.94v53.65H927V221.94a63.71,63.71,0,0,0-.74-9.62,27.15,27.15,0,0,0-2.87-8.78,17.06,17.06,0,0,0-6.1-6.48q-4-2.49-10.46-2.5a20.61,20.61,0,0,0-10.54,2.59,19.49,19.49,0,0,0-7,6.94,33,33,0,0,0-3.79,9.53A45.22,45.22,0,0,0,884.29,224v47.91Z"/><path class="cls-2" d="M1002.69,273.19a44.55,44.55,0,0,1-13-1.85,34.61,34.61,0,0,1-10.91-5.46,26.74,26.74,0,0,1-7.68-9.06A27.32,27.32,0,0,1,968.28,244q0-9.81,3.89-15.82A25.09,25.09,0,0,1,982.62,219a49.75,49.75,0,0,1,15.08-4.25,137.22,137.22,0,0,1,17.76-1.11h16.83a25.26,25.26,0,0,0-2-10.55,16.18,16.18,0,0,0-6.11-7q-4.07-2.58-10.73-2.59a29.14,29.14,0,0,0-7.77,1,17.74,17.74,0,0,0-6.29,3.05,10,10,0,0,0-3.51,5.18H971.24a32,32,0,0,1,5.27-13.41,32.86,32.86,0,0,1,10-9.25,47.59,47.59,0,0,1,13.14-5.36,60,60,0,0,1,14.52-1.76q21.27,0,31.27,12.21t10,34.22v52.54H1034l-.56-12.58a28.31,28.31,0,0,1-10.27,9.25,37.38,37.38,0,0,1-11.28,3.8A63.23,63.23,0,0,1,1002.69,273.19Zm5-19.24a28.41,28.41,0,0,0,12.58-2.69,22.35,22.35,0,0,0,8.88-7.49,18.69,18.69,0,0,0,3.33-10.91v-2.78h-17.76c-2.84,0-5.58.13-8.24.37a31.28,31.28,0,0,0-7.21,1.48,11.34,11.34,0,0,0-5.18,3.43,9.59,9.59,0,0,0-1.94,6.38,10.58,10.58,0,0,0,2.12,6.75,13.1,13.1,0,0,0,5.74,4.07A21.07,21.07,0,0,0,1007.69,254Z"/><path class="cls-2" d="M1076.14,271.89V174.4h22.57l1.29,11.84a30.44,30.44,0,0,1,9.16-8,38.81,38.81,0,0,1,10.82-4.16,49.16,49.16,0,0,1,10.36-1.2q13.88,0,21.83,6.1a33.46,33.46,0,0,1,11.38,16.28,71.2,71.2,0,0,1,3.42,22.76v53.83h-24V221.57a64.79,64.79,0,0,0-.74-9.8,27.75,27.75,0,0,0-2.77-8.7,15.83,15.83,0,0,0-5.74-6.19q-3.7-2.32-10-2.32a21.15,21.15,0,0,0-13,4,23.38,23.38,0,0,0-8,10.73,42.28,42.28,0,0,0-2.59,15.26v47.36Z"/><path class="cls-2" d="M1230.79,273.19q-15.16,0-25.62-6.2a40.24,40.24,0,0,1-15.91-17.39q-5.46-11.19-5.46-26.18t5.65-26.36a41.67,41.67,0,0,1,16.46-17.76q10.83-6.37,26.18-6.38a49.83,49.83,0,0,1,20.44,4,34.81,34.81,0,0,1,14.52,11.74q5.55,7.77,6.85,19.06h-23.68q-1.86-6.84-6.85-9.9a21.84,21.84,0,0,0-11.65-3.05q-9.08,0-14.25,4.25a24,24,0,0,0-7.49,10.92,40.94,40.94,0,0,0-2.31,13.5,38.88,38.88,0,0,0,2.4,13.79,22.81,22.81,0,0,0,7.68,10.36q5.28,4,13.6,4a23.67,23.67,0,0,0,12.21-3.14,15.06,15.06,0,0,0,7-9.81h24.23q-1.29,11.66-7.49,19.34a37.84,37.84,0,0,1-15.72,11.47A56,56,0,0,1,1230.79,273.19Z"/><path class="cls-2" d="M1335.13,273.19q-15.17,0-25.8-6.2a41,41,0,0,1-16.28-17.39q-5.65-11.19-5.65-26.18,0-14.79,5.83-26.17a43.85,43.85,0,0,1,16.47-17.86q10.63-6.46,25.62-6.47a46.41,46.41,0,0,1,19.42,3.79,39.77,39.77,0,0,1,14.06,10.55,45.76,45.76,0,0,1,8.61,15.54,56.17,56.17,0,0,1,2.68,18.59c-.13,1.6-.25,3.14-.37,4.62s-.31,3-.56,4.63h-67.71a29.41,29.41,0,0,0,3.24,11.19,19.4,19.4,0,0,0,7.77,8,25.51,25.51,0,0,0,12.67,2.86,33,33,0,0,0,8.7-1.11,20.66,20.66,0,0,0,7.12-3.42,11.56,11.56,0,0,0,4.16-5.64H1379a36.31,36.31,0,0,1-9,17.57,39,39,0,0,1-15.64,10A58.2,58.2,0,0,1,1335.13,273.19Zm-23.31-59.94h45a21.08,21.08,0,0,0-2.59-10.27,19.29,19.29,0,0,0-7.4-7.49,27.41,27.41,0,0,0-24.42.18,20.25,20.25,0,0,0-7.59,7.68A23.94,23.94,0,0,0,1311.82,213.25Z"/></g></svg>