<svg xmlns="http://www.w3.org/2000/svg" viewBox="0 0 1096.49 678.77"><defs><style>.cls-1{fill:#231f20;}</style></defs><g id="Artwork"><path class="cls-1" d="M684,217.18c-3.88,3.68-7.63,7.51-11.69,11-2.94,2.52-3.88,5.6-4,9.2-.85,29.08-10.19,55.47-25.68,79.81a185.28,185.28,0,0,1-22.91,28.62c-18.55,19.31-40.14,34.48-63.49,47.29-7.19,3.94-14.58,7.53-21.92,11.2a11.42,11.42,0,0,1-10.28,0c-19-8.72-37.24-18.8-54.14-31.19-25.91-19-47.75-41.64-62.86-70.29a160.23,160.23,0,0,1-18-56.72,165.85,165.85,0,0,1-.93-18.52c-.1-30,0-60-.11-90,0-4.94,1.09-7.26,6.69-9.18,9.07-3.11,18.32-5.7,27.43-8.72,27.17-9,53.48-20.16,79.76-31.41C510,84.83,518,81,526.1,77.22a7.58,7.58,0,0,1,6.62,0c19.8,8.69,39.52,17.57,59.46,25.91a695.72,695.72,0,0,0,68.75,24.45,21.53,21.53,0,0,1,3.89,1.49c3.27,1.7,5.3,4,5.24,8.16-.22,13.78-.13,27.55-.09,41.33,0,7.16.14,14.32.29,21.48a5.43,5.43,0,0,1-2,4.52c-5,4.58-10,9.31-14.92,14-.5.47-1,.93-1.87,1.72-.14-2.63-.36-4.87-.35-7.11q.09-30.88.25-61.77c0-5.54-1.85-8-7.16-9.78-10.87-3.65-21.76-7.25-32.58-11.06-6.49-2.28-12.91-4.79-19.27-7.43-16.21-6.72-32.37-13.57-48.56-20.35-3.47-1.45-7-2.71-10.41-4.29s-6.75-.73-10,.68q-21.47,9.22-43,18.4a583.7,583.7,0,0,1-65.26,23.7,23.56,23.56,0,0,0-4.25,1.7,7,7,0,0,0-4.07,6.91c.12,6.38,0,12.77,0,19.16-.08,11.47-.3,22.95-.28,34.42,0,10.64.13,21.28.43,31.91.31,10.84,2.67,21.36,5.56,31.76a142.53,142.53,0,0,0,25.7,50.39,209.06,209.06,0,0,0,58.55,50.88c8.3,4.92,16.93,9.31,25.36,14a13.45,13.45,0,0,0,14.06-.2c10.32-5.89,20.75-11.61,30.85-17.85a205.38,205.38,0,0,0,40.77-33c16-16.8,28.54-35.71,35-58.25,1.85-6.47,3.38-13,5.05-19.55.06-.25,0-.52-.47-1.2-1.72,1.87-3.38,3.8-5.17,5.6q-20.13,20.16-40.29,40.28-14.22,14.24-28.45,28.48a22.64,22.64,0,0,1-1.88,1.65c-3.35,2.59-6.53,2.45-9.51-.53q-16.76-16.75-33.46-33.54C519.29,285,510,275.57,500.52,266.4c-4.18-4-4.19-8.74-3.16-13.67.69-3.3,4.11-4.38,6.66-2.12,5.85,5.23,11.64,10.54,17.22,16.07,12.29,12.19,24.43,24.54,36.67,36.78a43.87,43.87,0,0,0,4.76,4.05,5.93,5.93,0,0,0,8-.35c7.6-7.34,15.13-14.77,22.64-22.2q22.83-22.6,45.61-45.27c9.75-9.72,19.35-19.6,29.11-29.31,6-5.93,12.09-11.71,18.2-17.5a3,3,0,0,0,.94-3.64c-3-8.56,1.16-17,7.28-21.39a20.49,20.49,0,0,1,22.79-.24c7.19,4.9,10.13,11.84,8.76,20.21-1.42,8.68-7,14.15-15.53,16-3.13.68-6.61,0-9.88-.38a4,4,0,0,0-3.87,1.11c-4.15,4.21-8.4,8.32-12.61,12.47Z"/><path class="cls-1" d="M565.47,245.47v-2.86q0-38.3,0-76.6a19.32,19.32,0,0,1,.31-3.31,7.25,7.25,0,0,1,7.26-6.21c11.89,0,23.79,0,35.69-.05,1.79,0,2.28.72,2.27,2.35q0,37.68-.06,75.35c0,5.84-.24,11.68-.22,17.52a8.05,8.05,0,0,1-2.43,6q-15.78,15.94-31.55,31.89c-3.26,3.28-6.13,3.53-9.46.39-5.86-5.53-11.48-11.33-17.22-17q-19.5-19.31-39-38.59-9.21-9.09-18.53-18.06a13,13,0,0,0-2.45-1.93c-3.51-2.05-7.41-.15-7.58,3.91-.31,7.15-.33,14.32-.44,21.48a50.81,50.81,0,0,0,.09,7.71,20.16,20.16,0,0,0,2.06,5.28,4.47,4.47,0,0,0,1.42,1.52c5.58,4.21,7.05,9.83,6.94,16.68-.33,20.93-.13,41.88-.16,62.82,0,1.51-.15,3-.25,5-1.46-.9-2.64-1.56-3.76-2.31-13-8.66-24.76-18.69-34.41-31a59,59,0,0,1-6.27-10.06,17.29,17.29,0,0,1-1.65-7.2c-.15-13.64,0-27.27-.07-40.91q-.11-40.59-.28-81.17c0-.84,0-1.67,0-2.5.32-4.83,1.84-6.22,6.67-6.22,6.61,0,13.22,0,19.83,0a9.45,9.45,0,0,1,7.08,2.95q31,31,62.06,61.89c7.39,7.36,14.85,14.64,22.29,21.95C564.06,244.47,564.53,244.76,565.47,245.47Z"/><path class="cls-1" d="M684.13,217v.15H684Z"/><path class="cls-1" d="M125.36,580V449.2h25.9l61.79,92.31V449.2h24.61V580H212.5L150,488.42V580Z"/><path class="cls-1" d="M307.4,581.29q-14.81,0-25.71-6.1a42.3,42.3,0,0,1-16.93-17.3q-6-11.19-6-26.55t6.1-26.64a43.58,43.58,0,0,1,16.93-17.48Q292.6,481,307.4,481T333,487.31a43,43,0,0,1,16.75,17.57q5.91,11.29,5.92,26.83,0,15.16-5.83,26.36a40.78,40.78,0,0,1-16.65,17.21Q322.38,581.29,307.4,581.29Zm-.18-21.83q8.86,0,14.33-4a22.85,22.85,0,0,0,8-10.36,37.06,37.06,0,0,0,2.5-13.59,38.56,38.56,0,0,0-2.5-13.79,23.64,23.64,0,0,0-7.86-10.63Q316.28,503,307.22,503q-8.88,0-14.34,4.07a23.35,23.35,0,0,0-8,10.54,38.34,38.34,0,0,0-2.5,13.88,37.61,37.61,0,0,0,2.5,13.78,22.35,22.35,0,0,0,8,10.27Q298.33,559.46,307.22,559.46Z"/><path class="cls-1" d="M416.36,581.29q-15.17,0-25.62-6.2a40.19,40.19,0,0,1-15.91-17.39q-5.46-11.19-5.46-26.17T375,505.16a41.73,41.73,0,0,1,16.46-17.76Q402.31,481,417.66,481a50,50,0,0,1,20.44,4,34.83,34.83,0,0,1,14.52,11.75q5.55,7.75,6.85,19H435.79q-1.86-6.84-6.85-9.9a21.93,21.93,0,0,0-11.65-3q-9.07,0-14.25,4.26A23.94,23.94,0,0,0,395.55,518a41,41,0,0,0-2.31,13.51,38.86,38.86,0,0,0,2.4,13.78,22.82,22.82,0,0,0,7.68,10.36q5.28,4,13.6,4a23.68,23.68,0,0,0,12.21-3.15,15.06,15.06,0,0,0,7-9.8h24.23Q459.1,558.34,452.9,566a37.75,37.75,0,0,1-15.72,11.47A56,56,0,0,1,416.36,581.29Z"/><path class="cls-1" d="M476.67,580V449.2h24.05v45.33a32.62,32.62,0,0,1,9.35-8,41.05,41.05,0,0,1,10.82-4.25,46.05,46.05,0,0,1,10.54-1.3q13.7,0,21.56,6.1a33.1,33.1,0,0,1,11.19,16.29,73.49,73.49,0,0,1,3.33,22.93V580h-24V530a63.71,63.71,0,0,0-.74-9.62,27.39,27.39,0,0,0-2.87-8.78,17.14,17.14,0,0,0-6.1-6.48q-4-2.49-10.46-2.49a20.61,20.61,0,0,0-10.54,2.58,19.49,19.49,0,0,0-7,6.94,33,33,0,0,0-3.79,9.53,45.22,45.22,0,0,0-1.21,10.36V580Z"/><path class="cls-1" d="M619.12,581.29a44.55,44.55,0,0,1-13-1.85A34.61,34.61,0,0,1,595.26,574a26.55,26.55,0,0,1-7.68-9.06,27.32,27.32,0,0,1-2.87-12.86q0-9.81,3.89-15.82a25.16,25.16,0,0,1,10.45-9.16,49.67,49.67,0,0,1,15.08-4.25,137.22,137.22,0,0,1,17.76-1.11h16.83a25.26,25.26,0,0,0-2-10.55,16.1,16.1,0,0,0-6.11-7q-4.07-2.59-10.73-2.6a29.56,29.56,0,0,0-7.77,1,17.74,17.74,0,0,0-6.29,3.05,10,10,0,0,0-3.51,5.18H587.67a32.09,32.09,0,0,1,5.27-13.41,32.63,32.63,0,0,1,10-9.25,47.59,47.59,0,0,1,13.14-5.36A60.49,60.49,0,0,1,630.59,481q21.27,0,31.27,12.21t10,34.23V580H650.39l-.56-12.58a28.49,28.49,0,0,1-10.27,9.25,37.63,37.63,0,0,1-11.28,3.79A63.23,63.23,0,0,1,619.12,581.29Zm5-19.24a28.54,28.54,0,0,0,12.58-2.68,22.46,22.46,0,0,0,8.88-7.5A18.69,18.69,0,0,0,648.91,541v-2.77H631.15q-4.26,0-8.24.36A30.75,30.75,0,0,0,615.7,540a11.4,11.4,0,0,0-5.18,3.42,9.59,9.59,0,0,0-1.94,6.38,10.5,10.5,0,0,0,2.12,6.75,13.1,13.1,0,0,0,5.74,4.07A21.07,21.07,0,0,0,624.12,562.05Z"/><path class="cls-1" d="M692.56,580V482.5h22.57l1.3,11.84a30.44,30.44,0,0,1,9.16-8,39.13,39.13,0,0,1,10.82-4.16,49.16,49.16,0,0,1,10.36-1.2q13.88,0,21.83,6.1A33.49,33.49,0,0,1,780,503.41a71.09,71.09,0,0,1,3.42,22.75V580h-24V529.67a64.79,64.79,0,0,0-.74-9.8,27.76,27.76,0,0,0-2.78-8.7A15.74,15.74,0,0,0,750.1,505q-3.71-2.31-10-2.31a21.14,21.14,0,0,0-13,4,23.52,23.52,0,0,0-8,10.73,42.54,42.54,0,0,0-2.59,15.26V580Z"/><path class="cls-1" d="M847.22,581.29q-15.16,0-25.62-6.2a40.19,40.19,0,0,1-15.91-17.39q-5.46-11.19-5.46-26.17t5.64-26.37a41.75,41.75,0,0,1,16.47-17.76Q833.16,481,848.52,481A50,50,0,0,1,869,485a34.83,34.83,0,0,1,14.52,11.75q5.55,7.75,6.85,19H866.65q-1.86-6.84-6.85-9.9a21.93,21.93,0,0,0-11.65-3q-9.07,0-14.25,4.26A23.94,23.94,0,0,0,826.41,518a41,41,0,0,0-2.31,13.51,38.86,38.86,0,0,0,2.4,13.78,22.68,22.68,0,0,0,7.68,10.36q5.28,4,13.6,4A23.68,23.68,0,0,0,860,556.5a15.06,15.06,0,0,0,7-9.8h24.23Q890,558.34,883.76,566A37.72,37.72,0,0,1,868,577.5,55.94,55.94,0,0,1,847.22,581.29Z"/><path class="cls-1" d="M951.56,581.29q-15.16,0-25.81-6.2a41.07,41.07,0,0,1-16.28-17.39q-5.64-11.19-5.64-26.17,0-14.81,5.83-26.18a43.73,43.73,0,0,1,16.46-17.85Q936.76,481,951.75,481a46.57,46.57,0,0,1,19.42,3.79,39.89,39.89,0,0,1,14.06,10.55,45.57,45.57,0,0,1,8.6,15.54,56,56,0,0,1,2.69,18.59c-.13,1.6-.25,3.14-.37,4.63s-.31,3-.56,4.62H927.88a29.41,29.41,0,0,0,3.24,11.19,19.28,19.28,0,0,0,7.77,8,25.51,25.51,0,0,0,12.67,2.86,33.44,33.44,0,0,0,8.7-1.1,20.58,20.58,0,0,0,7.12-3.43,11.62,11.62,0,0,0,4.16-5.64h23.87a36.31,36.31,0,0,1-9,17.58,39.15,39.15,0,0,1-15.63,10A58.45,58.45,0,0,1,951.56,581.29Zm-23.31-59.94h45a21.08,21.08,0,0,0-2.59-10.27,19.29,19.29,0,0,0-7.4-7.49,27.46,27.46,0,0,0-24.42.19,20.16,20.16,0,0,0-7.59,7.67A23.94,23.94,0,0,0,928.25,521.35Z"/></g></svg>