<svg xmlns="http://www.w3.org/2000/svg" viewBox="0 0 469.69 442.51"><defs><style>.cls-1{fill:#231f20;}</style></defs><g id="Artwork"><path class="cls-1" d="M361.67,197.44c-3.88,3.68-7.63,7.51-11.69,11-2.93,2.51-3.87,5.6-4,9.19-.85,29.09-10.19,55.47-25.68,79.82a184.55,184.55,0,0,1-22.9,28.61c-18.55,19.31-40.15,34.48-63.5,47.29-7.19,3.94-14.58,7.53-21.91,11.2a11.42,11.42,0,0,1-10.28,0c-19-8.71-37.24-18.8-54.14-31.18-25.92-19-47.75-41.65-62.87-70.3-9.4-17.82-15.72-36.66-18-56.72a165.8,165.8,0,0,1-.94-18.51c-.09-30,0-60-.1-90,0-4.94,1.09-7.26,6.68-9.18,9.08-3.11,18.33-5.7,27.44-8.71,27.16-9,53.48-20.17,79.76-31.42,8.18-3.5,16.2-7.37,24.27-11.11a7.6,7.6,0,0,1,6.63,0c19.8,8.68,39.52,17.56,59.46,25.9a696.45,696.45,0,0,0,68.74,24.45,22,22,0,0,1,3.89,1.49c3.28,1.7,5.31,4,5.24,8.17-.21,13.77-.12,27.55-.08,41.32,0,7.16.14,14.33.29,21.49a5.46,5.46,0,0,1-2,4.52c-5,4.57-9.95,9.3-14.91,14-.5.47-1,.93-1.88,1.72-.13-2.63-.35-4.87-.35-7.11q.1-30.87.25-61.76c0-5.55-1.84-8-7.15-9.78-10.88-3.65-21.77-7.26-32.58-11.07-6.49-2.28-12.91-4.79-19.27-7.42-16.22-6.72-32.38-13.58-48.57-20.36-3.46-1.45-7-2.71-10.41-4.29s-6.74-.73-10,.68q-21.47,9.23-42.95,18.4a583.7,583.7,0,0,1-65.26,23.7,24.8,24.8,0,0,0-4.25,1.7,7,7,0,0,0-4.08,6.91c.13,6.39,0,12.78,0,19.16-.08,11.48-.29,22.95-.27,34.42,0,10.64.13,21.28.43,31.91.3,10.84,2.67,21.36,5.55,31.76a142.62,142.62,0,0,0,25.7,50.39,209.08,209.08,0,0,0,58.56,50.88c8.3,4.92,16.92,9.31,25.35,14a13.45,13.45,0,0,0,14.06-.2c10.33-5.88,20.75-11.61,30.86-17.85a205,205,0,0,0,40.76-33c16-16.81,28.55-35.72,35-58.26,1.85-6.47,3.38-13,5-19.55.07-.25,0-.52-.47-1.2-1.72,1.87-3.37,3.81-5.17,5.6q-20.12,20.16-40.28,40.28Q265.4,292.77,251.18,307a19.76,19.76,0,0,1-1.89,1.65c-3.34,2.6-6.52,2.45-9.51-.53Q223,291.38,206.33,274.6c-9.34-9.35-18.61-18.76-28.12-27.94-4.17-4-4.18-8.74-3.15-13.67.68-3.3,4.11-4.38,6.65-2.11,5.86,5.22,11.65,10.54,17.22,16.06,12.3,12.19,24.43,24.54,36.67,36.79a44.86,44.86,0,0,0,4.77,4,5.94,5.94,0,0,0,8-.34q11.4-11,22.63-22.21,22.85-22.61,45.62-45.27c9.75-9.72,19.35-19.6,29.11-29.31,6-5.93,12.09-11.7,18.2-17.5a3,3,0,0,0,.93-3.64c-2.94-8.55,1.17-16.95,7.29-21.39a20.49,20.49,0,0,1,22.78-.24c7.19,4.9,10.14,11.84,8.77,20.21-1.42,8.68-7,14.16-15.54,16-3.12.68-6.6,0-9.88-.37a4,4,0,0,0-3.87,1.11c-4.14,4.21-8.39,8.32-12.6,12.46Z"/><path class="cls-1" d="M243.16,225.74v-2.87q0-38.3,0-76.6a19.4,19.4,0,0,1,.3-3.31,7.25,7.25,0,0,1,7.26-6.21c11.9,0,23.8,0,35.69-.05,1.79,0,2.28.72,2.28,2.35q-.06,37.68-.07,75.35c0,5.84-.23,11.68-.22,17.52a8,8,0,0,1-2.42,6q-15.78,15.93-31.55,31.88c-3.26,3.28-6.13,3.54-9.46.4-5.87-5.54-11.49-11.33-17.22-17q-19.5-19.31-39-38.59c-6.14-6.06-12.34-12.05-18.53-18.06a13,13,0,0,0-2.45-1.92c-3.51-2.06-7.42-.16-7.59,3.9-.3,7.16-.32,14.32-.44,21.48a50.79,50.79,0,0,0,.1,7.71A19.88,19.88,0,0,0,161.9,233a4.4,4.4,0,0,0,1.41,1.51c5.59,4.21,7.06,9.83,6.95,16.68-.33,20.94-.14,41.88-.17,62.82,0,1.51-.14,3-.24,5-1.47-.89-2.64-1.56-3.77-2.31-13-8.66-24.75-18.69-34.4-31a58.29,58.29,0,0,1-6.27-10,17.21,17.21,0,0,1-1.65-7.21c-.15-13.63,0-27.27-.07-40.91q-.1-40.57-.28-81.17c0-.83,0-1.67,0-2.5.33-4.83,1.84-6.22,6.68-6.22,6.61,0,13.22,0,19.82,0a9.45,9.45,0,0,1,7.09,3q31,31,62.05,61.9c7.39,7.35,14.86,14.64,22.3,22C241.76,224.74,242.22,225,243.16,225.74Z"/><path class="cls-1" d="M361.83,197.28v.15h-.15Z"/></g></svg>