<svg xmlns="http://www.w3.org/2000/svg" viewBox="0 0 1145.46 331"><defs><style>.cls-1{fill:#fff;}</style></defs><g id="Artwork"><path class="cls-1" d="M131.71,228.33V97.53h25.9l61.79,92.32V97.53H244v130.8H218.84l-62.53-91.58v91.58Z"/><path class="cls-1" d="M313.75,229.62q-14.81,0-25.72-6.1a42.3,42.3,0,0,1-16.93-17.3q-6-11.19-6-26.55T271.2,153a43.68,43.68,0,0,1,16.92-17.48q10.83-6.2,25.63-6.19t25.62,6.29a43,43,0,0,1,16.74,17.57Q362,164.5,362,180q0,15.18-5.83,26.37a40.64,40.64,0,0,1-16.65,17.2Q328.73,229.63,313.75,229.62Zm-.19-21.83q8.88,0,14.34-4a22.81,22.81,0,0,0,8-10.36,36.91,36.91,0,0,0,2.5-13.6,38.33,38.33,0,0,0-2.5-13.78A23.47,23.47,0,0,0,328,155.44q-5.37-4.06-14.43-4.07-8.88,0-14.34,4.07a23.36,23.36,0,0,0-8,10.55,38.08,38.08,0,0,0-2.5,13.87,37.37,37.37,0,0,0,2.5,13.78,22.28,22.28,0,0,0,8,10.27Q304.68,207.8,313.56,207.79Z"/><path class="cls-1" d="M422.71,229.62q-15.16,0-25.62-6.19A40.18,40.18,0,0,1,381.18,206q-5.46-11.19-5.46-26.18t5.64-26.36a41.57,41.57,0,0,1,16.47-17.76q10.82-6.39,26.18-6.38a50,50,0,0,1,20.44,4A34.91,34.91,0,0,1,459,145.08q5.55,7.77,6.85,19H442.14q-1.86-6.84-6.85-9.89a21.84,21.84,0,0,0-11.65-3.05q-9.08,0-14.25,4.25a24,24,0,0,0-7.49,10.92,40.64,40.64,0,0,0-2.31,13.5,38.82,38.82,0,0,0,2.4,13.78A22.63,22.63,0,0,0,409.67,204q5.26,4,13.6,4a23.68,23.68,0,0,0,12.21-3.15,15,15,0,0,0,7-9.8h24.23q-1.29,11.66-7.49,19.33a37.76,37.76,0,0,1-15.73,11.47A55.74,55.74,0,0,1,422.71,229.62Z"/><path class="cls-1" d="M483,228.33V97.53h24.05v45.33a32.55,32.55,0,0,1,9.34-8,40.94,40.94,0,0,1,10.83-4.26,46.58,46.58,0,0,1,10.54-1.29q13.69,0,21.55,6.1a33.09,33.09,0,0,1,11.2,16.28,73.55,73.55,0,0,1,3.33,22.94v53.65H549.81v-50a63.61,63.61,0,0,0-.74-9.62A27.7,27.7,0,0,0,546.2,160a17.06,17.06,0,0,0-6.11-6.47q-4-2.5-10.45-2.5a20.51,20.51,0,0,0-10.54,2.59,19.41,19.41,0,0,0-7,6.94,33,33,0,0,0-3.8,9.52,45.84,45.84,0,0,0-1.2,10.36v47.92Z"/><path class="cls-1" d="M625.47,229.62a44.5,44.5,0,0,1-13-1.84,35.2,35.2,0,0,1-10.92-5.46,26.65,26.65,0,0,1-7.67-9.07,27.13,27.13,0,0,1-2.87-12.85q0-9.81,3.88-15.82a25.12,25.12,0,0,1,10.46-9.16,49.69,49.69,0,0,1,15.07-4.26,137.22,137.22,0,0,1,17.76-1.11h16.84a25.09,25.09,0,0,0-2-10.54,16.16,16.16,0,0,0-6.1-7q-4.08-2.59-10.73-2.59a29,29,0,0,0-7.77,1,17.49,17.49,0,0,0-6.29,3.05,10.05,10.05,0,0,0-3.52,5.18H594a32,32,0,0,1,5.27-13.41,32.51,32.51,0,0,1,10-9.25,47.61,47.61,0,0,1,13.14-5.37,60.36,60.36,0,0,1,14.52-1.75q21.27,0,31.26,12.21t10,34.22v52.54H656.73l-.55-12.58A28.4,28.4,0,0,1,645.91,225a37.44,37.44,0,0,1-11.28,3.79A62,62,0,0,1,625.47,229.62Zm5-19.24A28.51,28.51,0,0,0,643,207.7a22.35,22.35,0,0,0,8.88-7.49,18.74,18.74,0,0,0,3.33-10.92v-2.77H637.49q-4.26,0-8.23.37a31.17,31.17,0,0,0-7.21,1.48,11.4,11.4,0,0,0-5.18,3.42,9.61,9.61,0,0,0-2,6.38,10.53,10.53,0,0,0,2.13,6.76,13.18,13.18,0,0,0,5.74,4.07A21.26,21.26,0,0,0,630.46,210.38Z"/><path class="cls-1" d="M698.91,228.33v-97.5h22.57l1.3,11.84a30.35,30.35,0,0,1,9.15-7.95,39,39,0,0,1,10.83-4.16,49.16,49.16,0,0,1,10.36-1.2q13.88,0,21.83,6.1a33.38,33.38,0,0,1,11.37,16.28,71.13,71.13,0,0,1,3.43,22.75v53.84h-24V178a64.92,64.92,0,0,0-.74-9.81,27.78,27.78,0,0,0-2.78-8.69,16,16,0,0,0-5.73-6.2q-3.71-2.31-10-2.31a21.13,21.13,0,0,0-13,4,23.46,23.46,0,0,0-8,10.73A42.28,42.28,0,0,0,723,181v47.36Z"/><path class="cls-1" d="M853.57,229.62q-15.18,0-25.62-6.19A40.18,40.18,0,0,1,812,206q-5.46-11.19-5.46-26.18t5.64-26.36a41.57,41.57,0,0,1,16.47-17.76q10.81-6.39,26.17-6.38a50,50,0,0,1,20.45,4,34.91,34.91,0,0,1,14.52,11.75q5.55,7.77,6.84,19H873q-1.85-6.84-6.84-9.89a21.87,21.87,0,0,0-11.66-3.05q-9.06,0-14.24,4.25a23.9,23.9,0,0,0-7.49,10.92,40.65,40.65,0,0,0-2.32,13.5,38.83,38.83,0,0,0,2.41,13.78A22.63,22.63,0,0,0,840.53,204q5.26,4,13.59,4a23.63,23.63,0,0,0,12.21-3.15,15,15,0,0,0,7-9.8H897.6q-1.3,11.66-7.49,19.33a37.76,37.76,0,0,1-15.73,11.47A55.74,55.74,0,0,1,853.57,229.62Z"/><path class="cls-1" d="M957.91,229.62q-15.18,0-25.81-6.19A41.07,41.07,0,0,1,915.82,206q-5.64-11.19-5.64-26.18,0-14.81,5.83-26.18a43.86,43.86,0,0,1,16.46-17.85q10.63-6.48,25.62-6.47a46.46,46.46,0,0,1,19.43,3.79,40,40,0,0,1,14.06,10.54,45.75,45.75,0,0,1,8.6,15.54,56,56,0,0,1,2.68,18.59c-.12,1.61-.24,3.15-.37,4.63s-.31,3-.55,4.62H934.23a29.41,29.41,0,0,0,3.24,11.2,19.19,19.19,0,0,0,7.77,7.95,25.4,25.4,0,0,0,12.67,2.87A32.89,32.89,0,0,0,966.6,208a20.71,20.71,0,0,0,7.13-3.42,11.64,11.64,0,0,0,4.16-5.65h23.86a36.13,36.13,0,0,1-9,17.58,39.22,39.22,0,0,1-15.63,10A58.24,58.24,0,0,1,957.91,229.62ZM934.6,169.69h44.95A21,21,0,0,0,977,159.42a19.18,19.18,0,0,0-7.4-7.5,23.73,23.73,0,0,0-12-2.77,24,24,0,0,0-12.4,3,20,20,0,0,0-7.58,7.68A23.71,23.71,0,0,0,934.6,169.69Z"/></g></svg>