<svg xmlns="http://www.w3.org/2000/svg" viewBox="0 0 1096.49 733.55"><defs><style>.cls-1{fill:#6b01ff;}</style></defs><g id="Artwork"><path class="cls-1" d="M670.19,244.57c-3.88,3.68-7.63,7.51-11.69,11-2.94,2.52-3.87,5.6-4,9.2-.85,29.08-10.19,55.47-25.68,79.81a184.1,184.1,0,0,1-22.91,28.62c-18.54,19.31-40.14,34.48-63.49,47.28-7.19,4-14.58,7.54-21.91,11.21a11.42,11.42,0,0,1-10.28,0c-19-8.72-37.25-18.8-54.14-31.19-25.92-19-47.75-41.64-62.87-70.29-9.4-17.83-15.73-36.66-18-56.72a165.86,165.86,0,0,1-.94-18.52c-.09-30,0-60-.1-89.95,0-4.94,1.09-7.26,6.68-9.18,9.08-3.11,18.33-5.7,27.44-8.72,27.16-9,53.48-20.16,79.76-31.41,8.18-3.5,16.2-7.37,24.27-11.11a7.6,7.6,0,0,1,6.63,0c19.8,8.69,39.51,17.57,59.46,25.91A693.83,693.83,0,0,0,647.14,155a22,22,0,0,1,3.89,1.5c3.28,1.7,5.31,4,5.24,8.16-.21,13.78-.12,27.55-.08,41.33,0,7.16.14,14.32.29,21.48a5.47,5.47,0,0,1-2,4.52c-5,4.58-10,9.31-14.91,14-.5.47-1,.93-1.88,1.72-.13-2.63-.35-4.87-.35-7.11q.09-30.88.25-61.77c0-5.54-1.84-8-7.15-9.78-10.88-3.65-21.77-7.25-32.58-11.06-6.5-2.28-12.92-4.79-19.27-7.43C562.36,143.81,546.2,137,530,130.18c-3.46-1.45-7-2.71-10.41-4.29s-6.74-.73-10,.68q-21.46,9.23-43,18.4a582.82,582.82,0,0,1-65.25,23.7,23.27,23.27,0,0,0-4.25,1.7,7,7,0,0,0-4.08,6.91c.12,6.38,0,12.77,0,19.16-.08,11.47-.29,22.95-.28,34.42,0,10.64.14,21.28.44,31.91.3,10.84,2.67,21.36,5.55,31.76a142.7,142.7,0,0,0,25.7,50.39A209.24,209.24,0,0,0,483,395.8c8.3,4.92,16.92,9.31,25.35,14a13.45,13.45,0,0,0,14.06-.2c10.33-5.89,20.75-11.61,30.86-17.85a205.32,205.32,0,0,0,40.76-33c16-16.8,28.55-35.71,35-58.25,1.84-6.47,3.37-13,5-19.55.06-.25,0-.52-.47-1.2-1.72,1.87-3.37,3.8-5.17,5.6q-20.11,20.16-40.28,40.28-14.24,14.23-28.45,28.48a21.26,21.26,0,0,1-1.89,1.65c-3.34,2.59-6.52,2.45-9.51-.54q-16.74-16.74-33.45-33.53c-9.34-9.34-18.61-18.76-28.12-27.93-4.17-4-4.18-8.74-3.15-13.68.68-3.29,4.11-4.37,6.65-2.11,5.86,5.23,11.65,10.54,17.22,16.07,12.3,12.18,24.43,24.54,36.67,36.78a45,45,0,0,0,4.77,4,5.93,5.93,0,0,0,8-.35c7.6-7.34,15.12-14.77,22.63-22.2q22.83-22.61,45.62-45.27c9.75-9.72,19.35-19.6,29.11-29.31,6-5.93,12.09-11.71,18.19-17.5a3,3,0,0,0,.94-3.64c-2.94-8.56,1.17-16.95,7.28-21.39a20.49,20.49,0,0,1,22.79-.24c7.19,4.9,10.14,11.84,8.77,20.21-1.43,8.68-7,14.15-15.54,16-3.13.68-6.6,0-9.88-.38a4,4,0,0,0-3.87,1.11c-4.14,4.21-8.39,8.32-12.6,12.47Z"/><path class="cls-1" d="M551.68,272.86V270q0-38.31,0-76.6a19.31,19.31,0,0,1,.3-3.31,7.25,7.25,0,0,1,7.26-6.21c11.9,0,23.79,0,35.69,0,1.79,0,2.28.72,2.28,2.35q-.06,37.68-.07,75.35c0,5.84-.23,11.68-.22,17.52a8,8,0,0,1-2.42,6Q578.74,301,563,316.92c-3.26,3.28-6.13,3.53-9.46.39-5.87-5.53-11.49-11.33-17.22-17q-19.5-19.31-39-38.59c-6.14-6.06-12.34-12.06-18.53-18.06a13.35,13.35,0,0,0-2.45-1.93c-3.51-2-7.42-.15-7.59,3.91-.3,7.15-.32,14.32-.44,21.48a50.81,50.81,0,0,0,.1,7.71,19.61,19.61,0,0,0,2.06,5.28,4.43,4.43,0,0,0,1.41,1.52c5.58,4.21,7.06,9.83,6.95,16.68-.33,20.93-.14,41.88-.17,62.82,0,1.51-.14,3-.24,5-1.47-.9-2.65-1.56-3.77-2.31-13-8.66-24.75-18.69-34.4-31a58.37,58.37,0,0,1-6.27-10.06,17,17,0,0,1-1.65-7.2c-.15-13.64,0-27.27-.07-40.91q-.1-40.59-.28-81.17c0-.84,0-1.67,0-2.5.33-4.83,1.84-6.22,6.68-6.22,6.61,0,13.21,0,19.82,0a9.47,9.47,0,0,1,7.09,3q31,31,62.05,61.89c7.39,7.36,14.86,14.64,22.3,22A22.23,22.23,0,0,0,551.68,272.86Z"/><path class="cls-1" d="M670.35,244.41v.14l-.15,0Z"/><path class="cls-1" d="M111.58,606.81V476h25.9l61.79,92.32V476h24.6v130.8H198.71l-62.53-91.58v91.58Z"/><path class="cls-1" d="M293.62,608.1q-14.81,0-25.72-6.1A42.36,42.36,0,0,1,251,584.7q-6-11.19-6-26.55t6.11-26.64A43.62,43.62,0,0,1,268,514q10.83-6.19,25.63-6.2t25.62,6.29A43.11,43.11,0,0,1,336,531.7q5.92,11.28,5.92,26.82,0,15.18-5.83,26.37a40.7,40.7,0,0,1-16.65,17.2Q308.6,608.11,293.62,608.1Zm-.19-21.83q8.88,0,14.34-4a22.93,22.93,0,0,0,8-10.36,36.91,36.91,0,0,0,2.5-13.6,38.29,38.29,0,0,0-2.5-13.78,23.47,23.47,0,0,0-7.86-10.64q-5.37-4.06-14.43-4.07-8.88,0-14.34,4.07a23.31,23.31,0,0,0-7.95,10.54,38.17,38.17,0,0,0-2.5,13.88,37.37,37.37,0,0,0,2.5,13.78,22.21,22.21,0,0,0,7.95,10.27Q284.55,586.28,293.43,586.27Z"/><path class="cls-1" d="M402.58,608.1q-15.16,0-25.62-6.19a40.24,40.24,0,0,1-15.91-17.39q-5.46-11.19-5.46-26.18T361.23,532a41.57,41.57,0,0,1,16.47-17.76q10.82-6.39,26.17-6.39a50,50,0,0,1,20.45,4,34.83,34.83,0,0,1,14.52,11.75q5.55,7.77,6.84,19.05H422q-1.85-6.84-6.84-9.89a21.88,21.88,0,0,0-11.66-3.06q-9.06,0-14.24,4.26a24,24,0,0,0-7.49,10.91,40.75,40.75,0,0,0-2.32,13.51,38.83,38.83,0,0,0,2.41,13.78,22.63,22.63,0,0,0,7.68,10.36q5.26,4,13.59,4a23.63,23.63,0,0,0,12.21-3.15,15,15,0,0,0,7-9.8h24.24q-1.29,11.65-7.49,19.33a37.85,37.85,0,0,1-15.73,11.47A55.74,55.74,0,0,1,402.58,608.1Z"/><path class="cls-1" d="M462.89,606.81V476h24.05v45.33a32.74,32.74,0,0,1,9.34-8,41.18,41.18,0,0,1,10.82-4.25,46.7,46.7,0,0,1,10.55-1.3q13.68,0,21.55,6.11a33.07,33.07,0,0,1,11.19,16.28,73.55,73.55,0,0,1,3.33,22.94v53.65H529.67V556.86a62.34,62.34,0,0,0-.74-9.62,27.36,27.36,0,0,0-2.86-8.79A17.06,17.06,0,0,0,520,532q-4-2.51-10.45-2.5A20.55,20.55,0,0,0,499,532.07a19.49,19.49,0,0,0-7,6.94,33.15,33.15,0,0,0-3.79,9.52,45.84,45.84,0,0,0-1.2,10.36v47.92Z"/><path class="cls-1" d="M605.34,608.1a44.5,44.5,0,0,1-13-1.85,35,35,0,0,1-10.92-5.45,26.79,26.79,0,0,1-7.68-9.07,27.29,27.29,0,0,1-2.86-12.86q0-9.79,3.88-15.81a25.15,25.15,0,0,1,10.45-9.16,49.55,49.55,0,0,1,15.08-4.26,137.22,137.22,0,0,1,17.76-1.11h16.84a25.06,25.06,0,0,0-2-10.54,16.16,16.16,0,0,0-6.1-7q-4.08-2.6-10.73-2.59a29,29,0,0,0-7.77,1,17.33,17.33,0,0,0-6.29,3.05,10.05,10.05,0,0,0-3.52,5.18h-24.6a32,32,0,0,1,5.27-13.41,32.39,32.39,0,0,1,10-9.25,47.36,47.36,0,0,1,13.13-5.37,60.51,60.51,0,0,1,14.53-1.76q21.27,0,31.26,12.21t10,34.23v52.54H636.6l-.55-12.58a28.48,28.48,0,0,1-10.27,9.25,37.49,37.49,0,0,1-11.29,3.79A61.83,61.83,0,0,1,605.34,608.1Zm5-19.24a28.51,28.51,0,0,0,12.58-2.68,22.43,22.43,0,0,0,8.88-7.49,18.74,18.74,0,0,0,3.33-10.92V565H617.36q-4.26,0-8.23.37a31.36,31.36,0,0,0-7.22,1.48,11.45,11.45,0,0,0-5.18,3.42,9.65,9.65,0,0,0-1.94,6.38,10.53,10.53,0,0,0,2.13,6.76,13.29,13.29,0,0,0,5.73,4.07A21.35,21.35,0,0,0,610.33,588.86Z"/><path class="cls-1" d="M678.78,606.81v-97.5h22.57l1.29,11.84a30.38,30.38,0,0,1,9.16-7.95A38.93,38.93,0,0,1,722.62,509,48.63,48.63,0,0,1,733,507.83q13.88,0,21.83,6.11a33.33,33.33,0,0,1,11.38,16.28A71.13,71.13,0,0,1,769.61,553v53.84H745.56V556.49a63.65,63.65,0,0,0-.74-9.81,27.51,27.51,0,0,0-2.77-8.69,15.86,15.86,0,0,0-5.74-6.2q-3.69-2.31-10-2.31a21.17,21.17,0,0,0-13,4,23.46,23.46,0,0,0-8,10.73,42.28,42.28,0,0,0-2.59,15.26v47.36Z"/><path class="cls-1" d="M833.44,608.1q-15.18,0-25.62-6.19a40.24,40.24,0,0,1-15.91-17.39q-5.46-11.19-5.46-26.18T792.09,532a41.57,41.57,0,0,1,16.47-17.76q10.82-6.39,26.17-6.39a50,50,0,0,1,20.45,4,34.83,34.83,0,0,1,14.52,11.75q5.55,7.77,6.84,19.05H852.86q-1.85-6.84-6.84-9.89a21.88,21.88,0,0,0-11.66-3.06q-9.06,0-14.24,4.26a23.92,23.92,0,0,0-7.49,10.91,40.75,40.75,0,0,0-2.32,13.51,38.61,38.61,0,0,0,2.41,13.78,22.63,22.63,0,0,0,7.68,10.36q5.26,4,13.59,4a23.68,23.68,0,0,0,12.21-3.15,15,15,0,0,0,7-9.8h24.24q-1.31,11.65-7.49,19.33a37.85,37.85,0,0,1-15.73,11.47A55.74,55.74,0,0,1,833.44,608.1Z"/><path class="cls-1" d="M937.78,608.1q-15.18,0-25.81-6.19a41.13,41.13,0,0,1-16.28-17.39q-5.64-11.19-5.64-26.18,0-14.8,5.82-26.18a44,44,0,0,1,16.47-17.85Q923,507.83,938,507.83a46.45,46.45,0,0,1,19.43,3.8,39.83,39.83,0,0,1,14.06,10.54,45.57,45.57,0,0,1,8.6,15.54,56.25,56.25,0,0,1,2.68,18.59c-.12,1.61-.25,3.15-.37,4.63s-.31,3-.55,4.62H914.1a29.68,29.68,0,0,0,3.23,11.2,19.31,19.31,0,0,0,7.77,8,25.57,25.57,0,0,0,12.68,2.87,32.89,32.89,0,0,0,8.69-1.11A20.79,20.79,0,0,0,953.6,583a11.69,11.69,0,0,0,4.16-5.65h23.86a36.13,36.13,0,0,1-9,17.58A39.22,39.22,0,0,1,957,605,58.5,58.5,0,0,1,937.78,608.1Zm-23.31-59.94h44.95a20.91,20.91,0,0,0-2.59-10.26,19.18,19.18,0,0,0-7.4-7.5,27.46,27.46,0,0,0-24.42.19,20,20,0,0,0-7.58,7.68A23.71,23.71,0,0,0,914.47,548.16Z"/></g></svg>