<svg xmlns="http://www.w3.org/2000/svg" viewBox="0 0 1096.49 670.54"><defs><style>.cls-1{fill:#8e2de2;}</style></defs><g id="Artwork"><path class="cls-1" d="M662.84,215.06c-3.89,3.68-7.64,7.52-11.7,11-2.93,2.51-3.87,5.6-4,9.19-.85,29.09-10.19,55.47-25.68,79.82a184.73,184.73,0,0,1-22.91,28.61C580,363,558.44,378.15,535.09,391c-7.2,3.94-14.58,7.53-21.92,11.2a11.42,11.42,0,0,1-10.28,0c-19-8.72-37.24-18.81-54.14-31.19-25.91-19-47.75-41.65-62.87-70.3-9.4-17.82-15.72-36.66-18-56.72a165.67,165.67,0,0,1-.93-18.51c-.1-30,0-60-.11-90,0-4.94,1.09-7.26,6.69-9.18,9.07-3.1,18.32-5.69,27.43-8.71,27.17-9,53.48-20.17,79.76-31.41,8.18-3.5,16.2-7.37,24.28-11.12a7.58,7.58,0,0,1,6.62,0c19.8,8.68,39.52,17.57,59.46,25.91a695.65,695.65,0,0,0,68.75,24.44,23.47,23.47,0,0,1,3.89,1.49c3.27,1.71,5.3,4,5.24,8.17-.22,13.77-.13,27.55-.09,41.32,0,7.17.14,14.33.29,21.49a5.48,5.48,0,0,1-2,4.52c-5,4.58-10,9.31-14.92,14-.5.47-1,.92-1.87,1.71-.14-2.63-.36-4.87-.35-7.1q.09-30.88.25-61.77c0-5.54-1.85-8-7.16-9.78-10.87-3.65-21.76-7.25-32.58-11.06-6.49-2.29-12.91-4.8-19.27-7.43-16.22-6.72-32.38-13.57-48.56-20.36-3.47-1.45-7-2.7-10.42-4.29s-6.74-.73-10,.68q-21.47,9.24-43,18.4A585.75,585.75,0,0,1,394,139.17a24,24,0,0,0-4.25,1.69,7,7,0,0,0-4.08,6.91c.13,6.39.05,12.78,0,19.17-.08,11.47-.3,22.94-.28,34.42,0,10.63.13,21.27.43,31.9.31,10.84,2.67,21.37,5.55,31.77a142.87,142.87,0,0,0,25.7,50.39,209,209,0,0,0,58.56,50.87c8.3,4.93,16.92,9.32,25.36,14,4.77,2.67,9.45,2.43,14.06-.19,10.32-5.89,20.75-11.62,30.85-17.86a205,205,0,0,0,40.76-33c16-16.8,28.55-35.71,35-58.25,1.85-6.47,3.38-13,5-19.56.07-.25,0-.52-.46-1.2-1.72,1.88-3.38,3.81-5.17,5.61Q600.95,276,580.79,296.16q-14.22,14.23-28.45,28.48a19.66,19.66,0,0,1-1.89,1.64c-3.34,2.6-6.52,2.46-9.51-.53Q524.2,309,507.49,292.22c-9.34-9.34-18.61-18.76-28.11-27.93-4.18-4-4.19-8.74-3.16-13.68.69-3.29,4.11-4.38,6.66-2.11,5.85,5.22,11.64,10.54,17.22,16.06,12.29,12.19,24.43,24.54,36.66,36.79a46.16,46.16,0,0,0,4.77,4,5.94,5.94,0,0,0,8-.35c7.6-7.35,15.12-14.77,22.64-22.21q22.83-22.6,45.61-45.26c9.75-9.73,19.35-19.6,29.11-29.31,6-5.94,12.09-11.71,18.2-17.5a3,3,0,0,0,.94-3.64c-2.95-8.56,1.16-17,7.28-21.39a20.51,20.51,0,0,1,22.79-.25c7.19,4.9,10.13,11.84,8.76,20.21-1.42,8.69-7,14.16-15.53,16-3.13.67-6.61,0-9.88-.38a4,4,0,0,0-3.87,1.11c-4.15,4.21-8.4,8.32-12.61,12.47Z"/><path class="cls-1" d="M544.33,243.36v-2.87q0-38.3,0-76.6a18.45,18.45,0,0,1,.31-3.31,7.24,7.24,0,0,1,7.25-6.21c11.9,0,23.8,0,35.69,0,1.8,0,2.29.71,2.28,2.35q0,37.66-.07,75.34c0,5.84-.23,11.68-.21,17.52a8.06,8.06,0,0,1-2.43,6q-15.78,15.93-31.55,31.88c-3.26,3.29-6.13,3.54-9.46.4-5.86-5.54-11.49-11.33-17.22-17q-19.5-19.31-39-38.59c-6.14-6.05-12.34-12.05-18.53-18.05a13,13,0,0,0-2.45-1.93c-3.51-2-7.41-.15-7.59,3.91-.3,7.15-.32,14.32-.43,21.48a50.83,50.83,0,0,0,.09,7.71,20,20,0,0,0,2.06,5.28,4.51,4.51,0,0,0,1.41,1.51c5.59,4.22,7.06,9.84,6.95,16.68-.33,20.94-.14,41.88-.16,62.83,0,1.51-.15,3-.25,5-1.46-.89-2.64-1.55-3.76-2.3-13-8.67-24.76-18.69-34.41-31a59,59,0,0,1-6.27-10.06,17.18,17.18,0,0,1-1.65-7.21c-.15-13.63,0-27.27-.07-40.9q-.11-40.59-.28-81.18c0-.83,0-1.67,0-2.5.33-4.82,1.85-6.22,6.68-6.21,6.61,0,13.22,0,19.83,0a9.4,9.4,0,0,1,7.08,2.94q31,31,62.06,61.9c7.39,7.36,14.85,14.64,22.29,22C542.92,242.36,543.38,242.64,544.33,243.36Z"/><path class="cls-1" d="M663,214.91v.14h-.14Z"/><path class="cls-1" d="M104.22,587.5V456.71h25.9L191.91,549V456.71h24.61V587.5H191.36l-62.53-91.57V587.5Z"/><path class="cls-1" d="M286.26,588.8q-14.81,0-25.72-6.11a42.28,42.28,0,0,1-16.92-17.3q-6-11.19-6-26.54t6.11-26.64a43.6,43.6,0,0,1,16.93-17.49q10.82-6.2,25.62-6.19t25.62,6.29a42.9,42.9,0,0,1,16.74,17.57q5.92,11.28,5.92,26.83,0,15.16-5.82,26.36a40.76,40.76,0,0,1-16.65,17.2Q301.24,588.79,286.26,588.8ZM286.07,567q8.88,0,14.34-4a22.9,22.9,0,0,0,8-10.36,37.11,37.11,0,0,0,2.49-13.6,38.54,38.54,0,0,0-2.49-13.78,23.61,23.61,0,0,0-7.87-10.64q-5.36-4.07-14.43-4.07-8.88,0-14.33,4.07a23.43,23.43,0,0,0-8,10.55,38.29,38.29,0,0,0-2.5,13.87,37.57,37.57,0,0,0,2.5,13.78,22.3,22.3,0,0,0,8,10.27Q277.19,567,286.07,567Z"/><path class="cls-1" d="M395.22,588.8q-15.17,0-25.62-6.2a40.24,40.24,0,0,1-15.91-17.39Q348.23,554,348.23,539t5.65-26.36a41.61,41.61,0,0,1,16.46-17.76q10.83-6.39,26.18-6.38a50,50,0,0,1,20.44,4,34.91,34.91,0,0,1,14.52,11.75q5.55,7.77,6.85,19.06H414.65q-1.86-6.85-6.85-9.9a21.84,21.84,0,0,0-11.65-3q-9.07,0-14.25,4.25a24,24,0,0,0-7.49,10.92A40.94,40.94,0,0,0,372.1,539a38.82,38.82,0,0,0,2.4,13.78,22.7,22.7,0,0,0,7.68,10.36q5.28,4,13.6,4A23.77,23.77,0,0,0,408,564a15.06,15.06,0,0,0,7-9.81h24.23q-1.29,11.65-7.49,19.33A37.66,37.66,0,0,1,416,585,55.83,55.83,0,0,1,395.22,588.8Z"/><path class="cls-1" d="M455.53,587.5V456.71h24.05V502a32.55,32.55,0,0,1,9.34-7.95,41.28,41.28,0,0,1,10.83-4.26,46.58,46.58,0,0,1,10.54-1.29q13.69,0,21.55,6.1A33,33,0,0,1,543,510.91a73.6,73.6,0,0,1,3.33,22.94V587.5h-24v-50a63.71,63.71,0,0,0-.74-9.62,27.53,27.53,0,0,0-2.87-8.79,17,17,0,0,0-6.1-6.47q-4-2.5-10.46-2.5a20.51,20.51,0,0,0-10.54,2.59,19.41,19.41,0,0,0-7,6.94,33.23,33.23,0,0,0-3.8,9.53,45.71,45.71,0,0,0-1.2,10.36V587.5Z"/><path class="cls-1" d="M598,588.8A44.55,44.55,0,0,1,585,587a35.2,35.2,0,0,1-10.92-5.46,26.77,26.77,0,0,1-7.67-9.07,27.13,27.13,0,0,1-2.87-12.85q0-9.81,3.89-15.82a25.09,25.09,0,0,1,10.45-9.16A49.39,49.39,0,0,1,593,530.34a137.22,137.22,0,0,1,17.76-1.11h16.83a25.26,25.26,0,0,0-2-10.55,16.18,16.18,0,0,0-6.11-7q-4.07-2.59-10.73-2.59a29.14,29.14,0,0,0-7.77,1,17.74,17.74,0,0,0-6.29,3.05,10.05,10.05,0,0,0-3.52,5.18h-24.6a32,32,0,0,1,5.27-13.41,32.51,32.51,0,0,1,10-9.25,47.61,47.61,0,0,1,13.14-5.37,60.42,60.42,0,0,1,14.52-1.75q21.27,0,31.27,12.21t10,34.22V587.5H629.25l-.56-12.58a28.31,28.31,0,0,1-10.27,9.25A37.16,37.16,0,0,1,607.14,588,62,62,0,0,1,598,588.8Zm5-19.24a28.55,28.55,0,0,0,12.58-2.69,22.35,22.35,0,0,0,8.88-7.49,18.78,18.78,0,0,0,3.33-10.91v-2.78H610c-2.84,0-5.59.13-8.24.37a31.17,31.17,0,0,0-7.21,1.48,11.4,11.4,0,0,0-5.18,3.42,9.62,9.62,0,0,0-1.94,6.39,10.52,10.52,0,0,0,2.12,6.75,13.18,13.18,0,0,0,5.74,4.07A21.28,21.28,0,0,0,603,569.56Z"/><path class="cls-1" d="M671.42,587.5V490H694l1.3,11.84a30.44,30.44,0,0,1,9.16-8,38.81,38.81,0,0,1,10.82-4.16,49.16,49.16,0,0,1,10.36-1.2q13.88,0,21.83,6.1a33.46,33.46,0,0,1,11.38,16.28,71.2,71.2,0,0,1,3.42,22.76V587.5h-24V537.18a64.69,64.69,0,0,0-.74-9.8,27.76,27.76,0,0,0-2.78-8.7,16,16,0,0,0-5.73-6.2q-3.71-2.31-10-2.31a21.13,21.13,0,0,0-13,4,23.46,23.46,0,0,0-8,10.73,42.28,42.28,0,0,0-2.59,15.26V587.5Z"/><path class="cls-1" d="M826.08,588.8q-15.17,0-25.62-6.2a40.24,40.24,0,0,1-15.91-17.39Q779.09,554,779.09,539t5.64-26.36a41.57,41.57,0,0,1,16.47-17.76q10.81-6.39,26.18-6.38a50,50,0,0,1,20.44,4,34.91,34.91,0,0,1,14.52,11.75q5.55,7.77,6.85,19.06H845.51q-1.86-6.85-6.85-9.9a21.84,21.84,0,0,0-11.65-3q-9.07,0-14.25,4.25a24,24,0,0,0-7.49,10.92A40.94,40.94,0,0,0,803,539a38.82,38.82,0,0,0,2.4,13.78A22.63,22.63,0,0,0,813,563.17q5.26,4,13.6,4A23.77,23.77,0,0,0,838.85,564a15.06,15.06,0,0,0,7-9.81h24.23q-1.29,11.65-7.49,19.33A37.7,37.7,0,0,1,846.89,585,55.74,55.74,0,0,1,826.08,588.8Z"/><path class="cls-1" d="M930.42,588.8q-15.17,0-25.81-6.2a41.07,41.07,0,0,1-16.28-17.39Q882.69,554,882.69,539q0-14.81,5.83-26.18A43.86,43.86,0,0,1,905,495q10.63-6.47,25.63-6.47A46.41,46.41,0,0,1,950,492.32a39.86,39.86,0,0,1,14.06,10.54,45.75,45.75,0,0,1,8.6,15.54,56.27,56.27,0,0,1,2.69,18.6c-.13,1.6-.25,3.14-.37,4.62s-.31,3-.56,4.63H906.74A29.41,29.41,0,0,0,910,557.44a19.19,19.19,0,0,0,7.77,7.95,25.4,25.4,0,0,0,12.67,2.87,33,33,0,0,0,8.7-1.11,20.74,20.74,0,0,0,7.12-3.42,11.62,11.62,0,0,0,4.16-5.64h23.87a36.23,36.23,0,0,1-9,17.57,39,39,0,0,1-15.63,10A58.2,58.2,0,0,1,930.42,588.8Zm-23.31-59.94h45a21.06,21.06,0,0,0-2.59-10.27,19.23,19.23,0,0,0-7.4-7.49,27.41,27.41,0,0,0-24.42.18,20.11,20.11,0,0,0-7.59,7.68A23.86,23.86,0,0,0,907.11,528.86Z"/></g></svg>