<svg xmlns="http://www.w3.org/2000/svg" viewBox="0 0 1145.46 331"><defs><style>.cls-1{fill:#8e2de2;}</style></defs><g id="Artwork"><path class="cls-1" d="M131.71,222.52V91.73h25.9L219.4,184V91.73H244V222.52H218.84L156.31,131v91.57Z"/><path class="cls-1" d="M313.75,223.82q-14.81,0-25.72-6.1a42.42,42.42,0,0,1-16.93-17.3q-6-11.19-6-26.55t6.11-26.64a43.62,43.62,0,0,1,16.92-17.48q10.83-6.19,25.63-6.2t25.62,6.29a43,43,0,0,1,16.74,17.57Q362,158.7,362,174.24q0,15.16-5.83,26.36a40.67,40.67,0,0,1-16.65,17.21Q328.73,223.83,313.75,223.82ZM313.56,202q8.88,0,14.34-4a22.76,22.76,0,0,0,8-10.36,36.86,36.86,0,0,0,2.5-13.59,38.35,38.35,0,0,0-2.5-13.79A23.49,23.49,0,0,0,328,149.64q-5.37-4.08-14.43-4.08-8.88,0-14.34,4.08a23.33,23.33,0,0,0-8,10.54,38.13,38.13,0,0,0-2.5,13.88,37.41,37.41,0,0,0,2.5,13.78,22.25,22.25,0,0,0,8,10.26Q304.68,202,313.56,202Z"/><path class="cls-1" d="M422.71,223.82q-15.16,0-25.62-6.2a40.13,40.13,0,0,1-15.91-17.39q-5.46-11.19-5.46-26.17t5.64-26.37a41.69,41.69,0,0,1,16.47-17.76q10.82-6.37,26.18-6.38a50,50,0,0,1,20.44,4A34.89,34.89,0,0,1,459,139.27q5.55,7.77,6.85,19.06H442.14q-1.86-6.84-6.85-9.9a21.93,21.93,0,0,0-11.65-3.05q-9.08,0-14.25,4.26a23.94,23.94,0,0,0-7.49,10.91,40.69,40.69,0,0,0-2.31,13.51,38.86,38.86,0,0,0,2.4,13.78,22.68,22.68,0,0,0,7.68,10.36q5.26,4,13.6,4A23.68,23.68,0,0,0,435.48,199a15.06,15.06,0,0,0,7-9.81h24.23q-1.29,11.66-7.49,19.34A37.85,37.85,0,0,1,443.52,220,55.94,55.94,0,0,1,422.71,223.82Z"/><path class="cls-1" d="M483,222.52V91.73h24.05v45.33a32.43,32.43,0,0,1,9.34-8,41.25,41.25,0,0,1,10.83-4.25,46.05,46.05,0,0,1,10.54-1.3q13.69,0,21.55,6.1a33.09,33.09,0,0,1,11.2,16.28,73.6,73.6,0,0,1,3.33,22.94v53.65H549.81v-50a63.71,63.71,0,0,0-.74-9.62,27.64,27.64,0,0,0-2.87-8.78,17.16,17.16,0,0,0-6.11-6.48q-4-2.49-10.45-2.5a20.61,20.61,0,0,0-10.54,2.59,19.49,19.49,0,0,0-7,6.94,33.06,33.06,0,0,0-3.8,9.53,45.77,45.77,0,0,0-1.2,10.36v47.91Z"/><path class="cls-1" d="M625.47,223.82a44.5,44.5,0,0,1-13-1.85,34.77,34.77,0,0,1-10.92-5.46,26.53,26.53,0,0,1-7.67-9.06,27.2,27.2,0,0,1-2.87-12.86q0-9.81,3.88-15.82a25.19,25.19,0,0,1,10.46-9.16,49.69,49.69,0,0,1,15.07-4.25,137.22,137.22,0,0,1,17.76-1.11h16.84a25.1,25.1,0,0,0-2-10.55,16.08,16.08,0,0,0-6.1-7q-4.08-2.6-10.73-2.6a29.45,29.45,0,0,0-7.77,1,17.66,17.66,0,0,0-6.29,3.05,10.09,10.09,0,0,0-3.52,5.18H594a32.09,32.09,0,0,1,5.27-13.41,32.63,32.63,0,0,1,10-9.25,47.59,47.59,0,0,1,13.14-5.36,60.37,60.37,0,0,1,14.52-1.76q21.27,0,31.26,12.21t10,34.22v52.54H656.73l-.55-12.58a28.31,28.31,0,0,1-10.27,9.25,37.47,37.47,0,0,1-11.28,3.8A63.35,63.35,0,0,1,625.47,223.82Zm5-19.24A28.51,28.51,0,0,0,643,201.9a22.46,22.46,0,0,0,8.88-7.5,18.69,18.69,0,0,0,3.33-10.91v-2.77H637.49q-4.26,0-8.23.36a31.17,31.17,0,0,0-7.21,1.48,11.5,11.5,0,0,0-5.18,3.43,9.6,9.6,0,0,0-2,6.38,10.5,10.5,0,0,0,2.13,6.75,13.1,13.1,0,0,0,5.74,4.07A21.05,21.05,0,0,0,630.46,204.58Z"/><path class="cls-1" d="M698.91,222.52V125h22.57l1.3,11.84a30.52,30.52,0,0,1,9.15-8,39.31,39.31,0,0,1,10.83-4.16,49.16,49.16,0,0,1,10.36-1.2q13.88,0,21.83,6.1a33.38,33.38,0,0,1,11.37,16.28,71.19,71.19,0,0,1,3.43,22.76v53.83h-24V172.2a64.79,64.79,0,0,0-.74-9.8,27.76,27.76,0,0,0-2.78-8.7,15.88,15.88,0,0,0-5.73-6.19q-3.71-2.31-10-2.32a21.13,21.13,0,0,0-13,4,23.52,23.52,0,0,0-8,10.73A42.32,42.32,0,0,0,723,175.16v47.36Z"/><path class="cls-1" d="M853.57,223.82q-15.18,0-25.62-6.2A40.13,40.13,0,0,1,812,200.23q-5.46-11.19-5.46-26.17t5.64-26.37a41.69,41.69,0,0,1,16.47-17.76q10.81-6.37,26.17-6.38a50,50,0,0,1,20.45,4,34.89,34.89,0,0,1,14.52,11.74q5.55,7.77,6.84,19.06H873q-1.85-6.84-6.84-9.9a22,22,0,0,0-11.66-3.05q-9.06,0-14.24,4.26a23.87,23.87,0,0,0-7.49,10.91,40.71,40.71,0,0,0-2.32,13.51,38.87,38.87,0,0,0,2.41,13.78,22.68,22.68,0,0,0,7.68,10.36q5.26,4,13.59,4A23.63,23.63,0,0,0,866.33,199a15,15,0,0,0,7-9.81H897.6q-1.3,11.66-7.49,19.34A37.85,37.85,0,0,1,874.38,220,55.94,55.94,0,0,1,853.57,223.82Z"/><path class="cls-1" d="M957.91,223.82q-15.18,0-25.81-6.2a41,41,0,0,1-16.28-17.39q-5.64-11.19-5.64-26.17,0-14.81,5.83-26.18A43.82,43.82,0,0,1,932.47,130q10.63-6.47,25.62-6.47a46.61,46.61,0,0,1,19.43,3.79,40,40,0,0,1,14.06,10.55,45.57,45.57,0,0,1,8.6,15.54,56,56,0,0,1,2.68,18.59c-.12,1.6-.24,3.14-.37,4.62s-.31,3-.55,4.63H934.23a29.41,29.41,0,0,0,3.24,11.19,19.16,19.16,0,0,0,7.77,8,25.51,25.51,0,0,0,12.67,2.86,33.31,33.31,0,0,0,8.69-1.1,20.72,20.72,0,0,0,7.13-3.43,11.62,11.62,0,0,0,4.16-5.64h23.86a36.14,36.14,0,0,1-9,17.57,39.13,39.13,0,0,1-15.63,10A58.5,58.5,0,0,1,957.91,223.82ZM934.6,163.88h44.95A21,21,0,0,0,977,153.61a19.16,19.16,0,0,0-7.4-7.49,27.46,27.46,0,0,0-24.42.19,20.06,20.06,0,0,0-7.58,7.67A23.8,23.8,0,0,0,934.6,163.88Z"/></g></svg>