<svg xmlns="http://www.w3.org/2000/svg" viewBox="0 0 1096.49 699.34"><defs><style>.cls-1{fill:#fff;}</style></defs><g id="Artwork"><path class="cls-1" d="M679.59,204c-3.88,3.68-7.63,7.52-11.69,11-2.94,2.51-3.87,5.6-4,9.19-.85,29.09-10.19,55.47-25.68,79.82a184,184,0,0,1-22.91,28.61c-18.54,19.31-40.14,34.48-63.49,47.29-7.19,3.94-14.58,7.53-21.92,11.2a11.4,11.4,0,0,1-10.27,0c-19-8.72-37.25-18.81-54.15-31.19-25.91-19-47.74-41.65-62.86-70.3A160.23,160.23,0,0,1,384.59,233a168.09,168.09,0,0,1-.93-18.51c-.09-30,0-60-.1-90,0-4.94,1.09-7.26,6.68-9.18,9.08-3.11,18.33-5.7,27.43-8.71,27.17-9,53.48-20.17,79.76-31.41,8.18-3.5,16.21-7.38,24.28-11.12a7.58,7.58,0,0,1,6.62,0c19.8,8.68,39.52,17.57,59.47,25.91a698,698,0,0,0,68.74,24.44,22,22,0,0,1,3.89,1.49c3.28,1.7,5.31,4,5.24,8.17-.21,13.77-.12,27.55-.09,41.32,0,7.17.14,14.33.29,21.49a5.45,5.45,0,0,1-2,4.52c-5,4.58-10,9.31-14.92,14-.49.47-1,.92-1.87,1.71-.13-2.63-.36-4.87-.35-7.1q.09-30.89.25-61.77c0-5.54-1.84-8-7.15-9.78-10.88-3.65-21.77-7.25-32.59-11.06-6.49-2.29-12.91-4.8-19.27-7.43-16.21-6.72-32.37-13.57-48.56-20.36-3.46-1.45-7-2.7-10.41-4.29s-6.74-.73-10,.68q-21.47,9.23-43,18.4a583.54,583.54,0,0,1-65.25,23.7,24.8,24.8,0,0,0-4.25,1.7,7,7,0,0,0-4.08,6.91c.12,6.39.05,12.78,0,19.17-.08,11.47-.29,22.94-.28,34.42,0,10.63.13,21.27.43,31.9.31,10.84,2.68,21.37,5.56,31.76a142.5,142.5,0,0,0,25.7,50.4,209.31,209.31,0,0,0,58.55,50.87c8.31,4.93,16.93,9.32,25.36,14,4.77,2.67,9.46,2.43,14.06-.2,10.32-5.88,20.75-11.61,30.86-17.85a205.27,205.27,0,0,0,40.76-33c16-16.8,28.55-35.71,35-58.25,1.85-6.47,3.38-13,5.05-19.56.06-.25,0-.52-.47-1.2-1.72,1.87-3.38,3.81-5.17,5.61Q617.71,265,597.55,285.13l-28.46,28.48a19.71,19.71,0,0,1-1.88,1.64c-3.34,2.6-6.53,2.45-9.51-.53Q540.94,298,524.24,281.19c-9.34-9.34-18.61-18.76-28.11-27.94-4.17-4-4.18-8.73-3.16-13.67.69-3.3,4.12-4.38,6.66-2.11,5.86,5.22,11.65,10.54,17.22,16.06,12.3,12.19,24.43,24.54,36.67,36.79a46.16,46.16,0,0,0,4.77,4.05,5.93,5.93,0,0,0,8-.35c7.61-7.35,15.13-14.77,22.64-22.21q22.83-22.6,45.61-45.26c9.76-9.73,19.35-19.6,29.12-29.31,6-5.94,12.09-11.71,18.19-17.5a3,3,0,0,0,.94-3.64c-2.94-8.56,1.17-17,7.28-21.39a20.51,20.51,0,0,1,22.79-.25c7.19,4.9,10.14,11.84,8.77,20.21-1.43,8.68-7,14.16-15.54,16-3.13.68-6.61,0-9.88-.37a4,4,0,0,0-3.87,1.11c-4.15,4.21-8.39,8.32-12.6,12.47Z"/><path class="cls-1" d="M561.08,232.33v-2.87q0-38.29,0-76.6a19.41,19.41,0,0,1,.31-3.31,7.25,7.25,0,0,1,7.26-6.21c11.9,0,23.79,0,35.69,0,1.79,0,2.28.71,2.28,2.35q-.06,37.66-.07,75.34c0,5.84-.23,11.68-.22,17.52a8,8,0,0,1-2.42,6q-15.78,15.93-31.55,31.88c-3.27,3.29-6.13,3.54-9.46.4-5.87-5.54-11.49-11.33-17.23-17q-19.5-19.3-39-38.59c-6.14-6.05-12.34-12.05-18.53-18.05a13.69,13.69,0,0,0-2.45-1.93c-3.52-2.06-7.42-.15-7.59,3.9-.3,7.16-.33,14.32-.44,21.49a49.56,49.56,0,0,0,.1,7.71,19.92,19.92,0,0,0,2.05,5.28,4.44,4.44,0,0,0,1.42,1.51c5.58,4.22,7,9.84,6.95,16.68-.33,20.94-.14,41.88-.17,62.82,0,1.52-.15,3-.25,5-1.46-.89-2.64-1.56-3.76-2.3-13-8.67-24.76-18.69-34.4-31a57.76,57.76,0,0,1-6.27-10.06,17,17,0,0,1-1.65-7.21c-.15-13.63,0-27.27-.07-40.91q-.12-40.57-.28-81.17c0-.83,0-1.67,0-2.5.33-4.82,1.84-6.22,6.67-6.21,6.61,0,13.22,0,19.83,0a9.42,9.42,0,0,1,7.09,2.94q31,31,62.05,61.9c7.39,7.36,14.86,14.64,22.3,22C559.67,231.33,560.14,231.61,561.08,232.33Z"/><path class="cls-1" d="M679.75,203.88l0,.14h-.14Z"/><path class="cls-1" d="M121,595V464.17h25.9l61.79,92.31V464.17h24.6V595H208.11l-62.53-91.57V595Z"/><path class="cls-1" d="M303,596.26q-14.79,0-25.71-6.11a42.34,42.34,0,0,1-16.93-17.29q-6-11.21-6-26.55t6.1-26.64a43.64,43.64,0,0,1,16.93-17.48Q288.22,496,303,496t25.63,6.29a43,43,0,0,1,16.74,17.57q5.91,11.29,5.92,26.83,0,15.17-5.83,26.36a40.64,40.64,0,0,1-16.65,17.2Q318,596.26,303,596.26Zm-.18-21.83q8.88,0,14.34-4a22.83,22.83,0,0,0,7.95-10.36,36.91,36.91,0,0,0,2.5-13.6,38.33,38.33,0,0,0-2.5-13.78,23.59,23.59,0,0,0-7.86-10.64Q311.89,518,302.83,518q-8.88,0-14.34,4.07a23.34,23.34,0,0,0-7.95,10.55,38.12,38.12,0,0,0-2.5,13.87,37.42,37.42,0,0,0,2.5,13.79,22.23,22.23,0,0,0,7.95,10.26Q294,574.42,302.83,574.43Z"/><path class="cls-1" d="M412,596.26q-15.18,0-25.62-6.2a40.18,40.18,0,0,1-15.91-17.39Q365,561.48,365,546.49t5.64-26.36a41.57,41.57,0,0,1,16.47-17.76Q397.92,496,413.27,496a49.88,49.88,0,0,1,20.45,4,34.81,34.81,0,0,1,14.52,11.74q5.55,7.77,6.84,19.06H431.4q-1.84-6.84-6.84-9.9a21.87,21.87,0,0,0-11.66-3q-9.06,0-14.24,4.25A24,24,0,0,0,391.17,533a40.69,40.69,0,0,0-2.32,13.5,38.66,38.66,0,0,0,2.41,13.79,22.74,22.74,0,0,0,7.68,10.36q5.26,4,13.59,4a23.67,23.67,0,0,0,12.21-3.14,15,15,0,0,0,7-9.81H456q-1.31,11.65-7.49,19.33a37.87,37.87,0,0,1-15.73,11.48A55.94,55.94,0,0,1,412,596.26Z"/><path class="cls-1" d="M472.29,595V464.17h24v45.32a32.42,32.42,0,0,1,9.34-7.95,41.57,41.57,0,0,1,10.82-4.26A46.66,46.66,0,0,1,527.05,496q13.68,0,21.55,6.1a33.07,33.07,0,0,1,11.19,16.28,73.6,73.6,0,0,1,3.33,22.94V595h-24V545a63.71,63.71,0,0,0-.74-9.62,27.38,27.38,0,0,0-2.86-8.78,17,17,0,0,0-6.11-6.48q-4-2.49-10.45-2.5a20.65,20.65,0,0,0-10.55,2.59,19.49,19.49,0,0,0-7,6.94,33,33,0,0,0-3.79,9.53,45.77,45.77,0,0,0-1.2,10.36V595Z"/><path class="cls-1" d="M614.74,596.26a44.62,44.62,0,0,1-13-1.85A34.82,34.82,0,0,1,590.87,589a26.74,26.74,0,0,1-7.68-9.06A27.32,27.32,0,0,1,580.32,567q0-9.81,3.89-15.82a25.09,25.09,0,0,1,10.45-9.16,49.83,49.83,0,0,1,15.08-4.25,137.22,137.22,0,0,1,17.76-1.11h16.84a25.1,25.1,0,0,0-2-10.55,16.16,16.16,0,0,0-6.1-7q-4.08-2.58-10.73-2.59a29,29,0,0,0-7.77,1,17.79,17.79,0,0,0-6.3,3.05,10.13,10.13,0,0,0-3.51,5.18H583.28a32,32,0,0,1,5.28-13.41,32.63,32.63,0,0,1,10-9.25,47.42,47.42,0,0,1,13.13-5.37A60.5,60.5,0,0,1,626.21,496q21.27,0,31.26,12.21t10,34.22V595H646l-.55-12.58a28.39,28.39,0,0,1-10.27,9.25,37.53,37.53,0,0,1-11.29,3.8A63.23,63.23,0,0,1,614.74,596.26Zm5-19.24a28.52,28.52,0,0,0,12.58-2.69,22.35,22.35,0,0,0,8.88-7.49,18.69,18.69,0,0,0,3.33-10.91v-2.78H626.76c-2.84,0-5.58.13-8.23.37a31.25,31.25,0,0,0-7.22,1.48,11.39,11.39,0,0,0-5.18,3.43,9.65,9.65,0,0,0-1.94,6.38,10.52,10.52,0,0,0,2.13,6.75,13.15,13.15,0,0,0,5.73,4.07A21.14,21.14,0,0,0,619.73,577Z"/><path class="cls-1" d="M688.18,595V497.47h22.57L712,509.31a30.56,30.56,0,0,1,9.16-8A38.93,38.93,0,0,1,732,497.19a49.16,49.16,0,0,1,10.36-1.2q13.88,0,21.83,6.1a33.4,33.4,0,0,1,11.38,16.28A71.2,71.2,0,0,1,779,541.13V595H755V544.64a64.79,64.79,0,0,0-.74-9.8,27.75,27.75,0,0,0-2.77-8.7,15.83,15.83,0,0,0-5.74-6.19q-3.71-2.33-10-2.32a21.15,21.15,0,0,0-13,4,23.38,23.38,0,0,0-7.95,10.73,42.28,42.28,0,0,0-2.59,15.26V595Z"/><path class="cls-1" d="M842.84,596.26q-15.18,0-25.63-6.2a40.24,40.24,0,0,1-15.91-17.39q-5.46-11.19-5.45-26.18t5.64-26.36A41.61,41.61,0,0,1,818,502.37Q828.78,496,844.13,496a49.8,49.8,0,0,1,20.44,4,34.84,34.84,0,0,1,14.53,11.74q5.55,7.77,6.84,19.06H862.26q-1.85-6.84-6.84-9.9a21.87,21.87,0,0,0-11.66-3q-9.06,0-14.24,4.25A24,24,0,0,0,822,533a40.94,40.94,0,0,0-2.31,13.5,38.66,38.66,0,0,0,2.41,13.79,22.79,22.79,0,0,0,7.67,10.36q5.28,4,13.6,4a23.67,23.67,0,0,0,12.21-3.14,15,15,0,0,0,7-9.81h24.24q-1.3,11.65-7.5,19.33a37.77,37.77,0,0,1-15.72,11.48A55.94,55.94,0,0,1,842.84,596.26Z"/><path class="cls-1" d="M947.18,596.26q-15.18,0-25.81-6.2a41,41,0,0,1-16.28-17.39q-5.65-11.19-5.64-26.18,0-14.79,5.82-26.17a43.85,43.85,0,0,1,16.47-17.86Q932.38,496,947.36,496a46.46,46.46,0,0,1,19.43,3.79,40,40,0,0,1,14.06,10.54,45.75,45.75,0,0,1,8.6,15.54,56.27,56.27,0,0,1,2.68,18.6c-.12,1.6-.25,3.14-.37,4.62s-.31,3-.55,4.63H923.5a29.4,29.4,0,0,0,3.23,11.19,19.4,19.4,0,0,0,7.77,8,25.55,25.55,0,0,0,12.68,2.86,32.89,32.89,0,0,0,8.69-1.11,20.66,20.66,0,0,0,7.12-3.42,11.58,11.58,0,0,0,4.17-5.64H991a36.22,36.22,0,0,1-9,17.57,39,39,0,0,1-15.63,10A58.24,58.24,0,0,1,947.18,596.26Zm-23.31-59.94h45a21,21,0,0,0-2.59-10.27,19.22,19.22,0,0,0-7.4-7.49,27.41,27.41,0,0,0-24.42.18,20.15,20.15,0,0,0-7.58,7.68A23.8,23.8,0,0,0,923.87,536.32Z"/></g></svg>