<svg xmlns="http://www.w3.org/2000/svg" viewBox="0 0 1444.43 394.2"><defs><style>.cls-1{fill:#231f20;}</style></defs><g id="Artwork"><path d="M392.49,171.19c-3.88,3.68-7.63,7.52-11.69,11-2.94,2.51-3.87,5.6-4,9.19-.85,29.09-10.19,55.47-25.68,79.82a184,184,0,0,1-22.91,28.61c-18.54,19.31-40.14,34.48-63.49,47.29-7.19,3.94-14.58,7.53-21.92,11.2a11.36,11.36,0,0,1-10.27,0c-19-8.71-37.25-18.8-54.15-31.18-25.91-19-47.74-41.65-62.86-70.3-9.41-17.82-15.73-36.66-18-56.72a165.8,165.8,0,0,1-.94-18.51c-.09-30,0-60-.1-90,0-4.94,1.09-7.26,6.68-9.18,9.08-3.11,18.33-5.7,27.44-8.71,27.16-9,53.47-20.17,79.75-31.41,8.18-3.5,16.21-7.38,24.28-11.12a7.58,7.58,0,0,1,6.62,0C261,40,280.75,48.84,300.7,57.17a695.54,695.54,0,0,0,68.74,24.45,22,22,0,0,1,3.89,1.49c3.28,1.7,5.31,4,5.24,8.17-.21,13.77-.12,27.55-.09,41.32,0,7.16.14,14.33.29,21.49a5.45,5.45,0,0,1-2,4.52c-5,4.57-9.95,9.3-14.92,14-.49.46-1,.92-1.87,1.71-.13-2.63-.36-4.87-.35-7.1q.09-30.88.25-61.77c0-5.55-1.84-8-7.15-9.78C341.85,92,331,88.39,320.14,84.59c-6.49-2.29-12.91-4.8-19.27-7.43-16.21-6.72-32.37-13.58-48.56-20.36-3.46-1.45-7-2.71-10.41-4.29s-6.74-.73-10,.68q-21.47,9.23-43,18.4a583.54,583.54,0,0,1-65.25,23.7,24.8,24.8,0,0,0-4.25,1.7,7,7,0,0,0-4.08,6.91c.12,6.39,0,12.78,0,19.16-.08,11.48-.29,22.95-.28,34.42,0,10.64.13,21.28.43,31.91.31,10.84,2.68,21.36,5.56,31.76a142.45,142.45,0,0,0,25.7,50.39,209.18,209.18,0,0,0,58.55,50.88c8.31,4.93,16.93,9.32,25.36,14a13.45,13.45,0,0,0,14.06-.2c10.32-5.88,20.75-11.61,30.86-17.85a205.27,205.27,0,0,0,40.76-33c16-16.8,28.55-35.71,35-58.25,1.85-6.48,3.38-13,5.05-19.56.06-.25,0-.52-.47-1.2-1.72,1.87-3.38,3.81-5.17,5.6q-20.12,20.17-40.28,40.28Q296.21,266.52,282,280.76a19.76,19.76,0,0,1-1.89,1.65c-3.34,2.6-6.53,2.45-9.51-.53q-16.76-16.75-33.46-33.53c-9.34-9.35-18.6-18.76-28.11-27.94-4.17-4-4.18-8.74-3.16-13.67.69-3.3,4.12-4.38,6.66-2.11,5.86,5.22,11.65,10.54,17.22,16.06,12.3,12.19,24.43,24.54,36.67,36.79a44.86,44.86,0,0,0,4.77,4,5.94,5.94,0,0,0,8-.34q11.4-11,22.63-22.21,22.83-22.6,45.62-45.26c9.75-9.73,19.35-19.6,29.11-29.32,6-5.93,12.09-11.7,18.19-17.5a3,3,0,0,0,.94-3.64c-2.94-8.55,1.17-17,7.28-21.39a20.51,20.51,0,0,1,22.79-.24c7.19,4.9,10.14,11.84,8.77,20.21-1.43,8.68-7,14.16-15.54,16-3.13.68-6.61,0-9.88-.37a4,4,0,0,0-3.87,1.11c-4.15,4.21-8.39,8.32-12.6,12.47Z"/><path d="M274,199.49v-2.87q0-38.3,0-76.6a20.48,20.48,0,0,1,.31-3.31,7.25,7.25,0,0,1,7.26-6.21c11.9,0,23.79,0,35.69,0,1.79,0,2.28.71,2.28,2.34q-.06,37.68-.07,75.35c0,5.84-.23,11.68-.22,17.52a8,8,0,0,1-2.42,6Q301,227.59,285.27,243.54c-3.26,3.28-6.13,3.54-9.46.4-5.87-5.54-11.49-11.33-17.22-17q-19.51-19.31-39-38.59c-6.14-6.06-12.34-12.05-18.53-18.06a13.29,13.29,0,0,0-2.45-1.92c-3.51-2.06-7.42-.16-7.59,3.9-.3,7.16-.33,14.32-.44,21.48a49.53,49.53,0,0,0,.1,7.71,19.85,19.85,0,0,0,2.05,5.29,4.53,4.53,0,0,0,1.42,1.51c5.58,4.21,7.05,9.84,7,16.68-.33,20.94-.14,41.88-.17,62.82,0,1.51-.14,3-.25,5-1.46-.89-2.64-1.56-3.76-2.31-13-8.66-24.75-18.68-34.4-31a58.14,58.14,0,0,1-6.27-10.06,17.06,17.06,0,0,1-1.65-7.21c-.15-13.63,0-27.27-.07-40.91q-.12-40.57-.28-81.17c0-.83,0-1.67,0-2.5.33-4.83,1.84-6.22,6.67-6.22,6.61,0,13.22,0,19.83,0a9.47,9.47,0,0,1,7.09,3q31,31,62.05,61.9c7.39,7.35,14.86,14.64,22.3,22C272.57,198.49,273,198.77,274,199.49Z"/><path d="M392.65,171v.14h-.15Z"/><path class="cls-1" d="M508.93,245.84V115h25.9l61.79,92.32V115h24.61v130.8H596.07l-62.53-91.58v91.58Z"/><path class="cls-1" d="M691,247.13q-14.81,0-25.71-6.1a42.3,42.3,0,0,1-16.93-17.3q-6-11.19-6-26.55t6.1-26.64a43.58,43.58,0,0,1,16.93-17.48q10.81-6.19,25.62-6.2t25.62,6.29a43,43,0,0,1,16.75,17.58q5.91,11.28,5.92,26.82,0,15.18-5.83,26.36a40.78,40.78,0,0,1-16.65,17.21Q705.95,247.14,691,247.13Zm-.18-21.83q8.88,0,14.33-4a22.85,22.85,0,0,0,8-10.36,37,37,0,0,0,2.5-13.59,38.6,38.6,0,0,0-2.5-13.79A23.64,23.64,0,0,0,705.22,173q-5.37-4.08-14.43-4.07-8.88,0-14.34,4.07a23.35,23.35,0,0,0-8,10.54A38.34,38.34,0,0,0,666,197.37a37.61,37.61,0,0,0,2.49,13.78,22.35,22.35,0,0,0,8,10.27Q681.9,225.31,690.79,225.3Z"/><path class="cls-1" d="M799.93,247.13q-15.16,0-25.62-6.2a40.19,40.19,0,0,1-15.91-17.39q-5.46-11.19-5.45-26.17T758.59,171a41.73,41.73,0,0,1,16.46-17.76q10.83-6.37,26.18-6.38a50,50,0,0,1,20.44,4,34.92,34.92,0,0,1,14.53,11.75,40.1,40.1,0,0,1,6.84,19H819.36q-1.85-6.84-6.85-9.9a21.93,21.93,0,0,0-11.65-3.05q-9.06,0-14.24,4.26a23.89,23.89,0,0,0-7.5,10.91,41,41,0,0,0-2.31,13.51,38.64,38.64,0,0,0,2.41,13.78,22.73,22.73,0,0,0,7.67,10.36q5.28,4,13.6,4a23.68,23.68,0,0,0,12.21-3.15,15,15,0,0,0,7-9.8H844q-1.31,11.66-7.5,19.33a37.75,37.75,0,0,1-15.72,11.47A55.79,55.79,0,0,1,799.93,247.13Z"/><path class="cls-1" d="M860.24,245.84V115h24v45.33a32.62,32.62,0,0,1,9.35-8,41.05,41.05,0,0,1,10.82-4.25,46.61,46.61,0,0,1,10.54-1.3q13.69,0,21.56,6.11a33,33,0,0,1,11.19,16.28,73.55,73.55,0,0,1,3.33,22.94v53.65H927v-50a63.51,63.51,0,0,0-.74-9.62,27.13,27.13,0,0,0-2.87-8.79,17.14,17.14,0,0,0-6.1-6.48q-4-2.49-10.46-2.49a20.51,20.51,0,0,0-10.54,2.59,19.46,19.46,0,0,0-7,6.93,33,33,0,0,0-3.79,9.53,45.29,45.29,0,0,0-1.21,10.36v47.92Z"/><path class="cls-1" d="M1002.69,247.13a44.55,44.55,0,0,1-13-1.85,34.61,34.61,0,0,1-10.91-5.46,26.55,26.55,0,0,1-7.68-9.06,27.29,27.29,0,0,1-2.87-12.86q0-9.79,3.89-15.82a25.07,25.07,0,0,1,10.45-9.15,49.47,49.47,0,0,1,15.08-4.26,137.22,137.22,0,0,1,17.76-1.11h16.83a25.21,25.21,0,0,0-2-10.54,16.12,16.12,0,0,0-6.11-7q-4.07-2.6-10.73-2.59a29.55,29.55,0,0,0-7.77,1,17.59,17.59,0,0,0-6.29,3.06,9.94,9.94,0,0,0-3.51,5.18H971.24a32.13,32.13,0,0,1,5.27-13.42,32.86,32.86,0,0,1,10-9.25,47.59,47.59,0,0,1,13.14-5.36,60.49,60.49,0,0,1,14.52-1.76q21.27,0,31.27,12.21t10,34.23v52.54H1034l-.56-12.58a28.49,28.49,0,0,1-10.27,9.25,37.63,37.63,0,0,1-11.28,3.79A63.23,63.23,0,0,1,1002.69,247.13Zm5-19.24a28.54,28.54,0,0,0,12.58-2.68,22.51,22.51,0,0,0,8.88-7.49,18.74,18.74,0,0,0,3.33-10.92V204h-17.76c-2.84,0-5.58.12-8.24.37a30.76,30.76,0,0,0-7.21,1.48,11.4,11.4,0,0,0-5.18,3.42,9.59,9.59,0,0,0-1.94,6.38,10.54,10.54,0,0,0,2.12,6.75,13.1,13.1,0,0,0,5.74,4.07A21.07,21.07,0,0,0,1007.69,227.89Z"/><path class="cls-1" d="M1076.14,245.84v-97.5h22.57l1.29,11.84a30.26,30.26,0,0,1,9.16-8,39.16,39.16,0,0,1,10.82-4.17,49.16,49.16,0,0,1,10.36-1.2q13.88,0,21.83,6.11a33.41,33.41,0,0,1,11.38,16.28A71.13,71.13,0,0,1,1167,192v53.84h-24V195.52a64.92,64.92,0,0,0-.74-9.81,27.77,27.77,0,0,0-2.77-8.69,15.86,15.86,0,0,0-5.74-6.2q-3.7-2.31-10-2.31a21.14,21.14,0,0,0-13,4,23.43,23.43,0,0,0-8,10.73,42.34,42.34,0,0,0-2.59,15.27v47.36Z"/><path class="cls-1" d="M1230.79,247.13q-15.16,0-25.62-6.2a40.19,40.19,0,0,1-15.91-17.39q-5.46-11.19-5.46-26.17t5.65-26.37a41.73,41.73,0,0,1,16.46-17.76q10.83-6.37,26.18-6.38a50,50,0,0,1,20.44,4,34.83,34.83,0,0,1,14.52,11.75q5.55,7.77,6.85,19h-23.68q-1.86-6.84-6.85-9.9a21.93,21.93,0,0,0-11.65-3.05q-9.08,0-14.25,4.26a23.94,23.94,0,0,0-7.49,10.91,41,41,0,0,0-2.31,13.51,38.86,38.86,0,0,0,2.4,13.78,22.75,22.75,0,0,0,7.68,10.36q5.28,4,13.6,4a23.68,23.68,0,0,0,12.21-3.15,15,15,0,0,0,7-9.8h24.23q-1.29,11.66-7.49,19.33a37.75,37.75,0,0,1-15.72,11.47A55.83,55.83,0,0,1,1230.79,247.13Z"/><path class="cls-1" d="M1335.13,247.13q-15.17,0-25.8-6.2a41,41,0,0,1-16.28-17.39q-5.65-11.19-5.65-26.17,0-14.81,5.83-26.18a43.76,43.76,0,0,1,16.47-17.85q10.63-6.48,25.62-6.48a46.57,46.57,0,0,1,19.42,3.79,39.89,39.89,0,0,1,14.06,10.55,45.76,45.76,0,0,1,8.61,15.54,56.25,56.25,0,0,1,2.68,18.59c-.13,1.61-.25,3.15-.37,4.63s-.31,3-.56,4.62h-67.71a29.41,29.41,0,0,0,3.24,11.19,19.28,19.28,0,0,0,7.77,8,25.51,25.51,0,0,0,12.67,2.87,33,33,0,0,0,8.7-1.11,20.49,20.49,0,0,0,7.12-3.43,11.56,11.56,0,0,0,4.16-5.64H1379a36.34,36.34,0,0,1-9,17.58,39.25,39.25,0,0,1-15.64,10A58.45,58.45,0,0,1,1335.13,247.13Zm-23.31-59.94h45a21.08,21.08,0,0,0-2.59-10.27,19.29,19.29,0,0,0-7.4-7.49,27.46,27.46,0,0,0-24.42.19,20.16,20.16,0,0,0-7.59,7.67A23.94,23.94,0,0,0,1311.82,187.19Z"/></g></svg>