<svg xmlns="http://www.w3.org/2000/svg" viewBox="0 0 1145.46 331"><defs><style>.cls-1{fill:#231f20;}</style></defs><g id="Artwork"><path class="cls-1" d="M131.71,214.24V83.44h25.9l61.79,92.32V83.44H244v130.8H218.84l-62.53-91.58v91.58Z"/><path class="cls-1" d="M313.75,215.53q-14.81,0-25.72-6.1a42.36,42.36,0,0,1-16.93-17.3q-6-11.19-6-26.55t6.11-26.64a43.62,43.62,0,0,1,16.92-17.48q10.83-6.19,25.63-6.2t25.62,6.29a43,43,0,0,1,16.74,17.58Q362,150.41,362,166q0,15.18-5.83,26.36a40.67,40.67,0,0,1-16.65,17.21Q328.73,215.54,313.75,215.53Zm-.19-21.83q8.88,0,14.34-4a22.76,22.76,0,0,0,8-10.36,36.82,36.82,0,0,0,2.5-13.59,38.39,38.39,0,0,0-2.5-13.79A23.49,23.49,0,0,0,328,141.35q-5.37-4.08-14.43-4.07-8.88,0-14.34,4.07a23.33,23.33,0,0,0-8,10.54,38.13,38.13,0,0,0-2.5,13.88,37.41,37.41,0,0,0,2.5,13.78,22.33,22.33,0,0,0,8,10.27Q304.68,193.71,313.56,193.7Z"/><path class="cls-1" d="M422.71,215.53q-15.16,0-25.62-6.2a40.13,40.13,0,0,1-15.91-17.39q-5.46-11.19-5.46-26.17t5.64-26.37a41.69,41.69,0,0,1,16.47-17.76q10.82-6.37,26.18-6.38a50,50,0,0,1,20.44,4A34.83,34.83,0,0,1,459,131q5.55,7.77,6.85,19H442.14q-1.86-6.84-6.85-9.9a21.93,21.93,0,0,0-11.65-3q-9.08,0-14.25,4.26a23.94,23.94,0,0,0-7.49,10.91,40.69,40.69,0,0,0-2.31,13.51,38.86,38.86,0,0,0,2.4,13.78,22.68,22.68,0,0,0,7.68,10.36q5.26,4,13.6,4a23.68,23.68,0,0,0,12.21-3.15,15,15,0,0,0,7-9.8h24.23q-1.29,11.66-7.49,19.33a37.85,37.85,0,0,1-15.73,11.47A55.74,55.74,0,0,1,422.71,215.53Z"/><path class="cls-1" d="M483,214.24V83.44h24.05v45.33a32.59,32.59,0,0,1,9.34-8,41.25,41.25,0,0,1,10.83-4.25,46.61,46.61,0,0,1,10.54-1.3q13.69,0,21.55,6.11a33,33,0,0,1,11.2,16.28,73.55,73.55,0,0,1,3.33,22.94v53.65H549.81v-50a63.51,63.51,0,0,0-.74-9.62,27.62,27.62,0,0,0-2.87-8.79,17.16,17.16,0,0,0-6.11-6.48q-4-2.49-10.45-2.49a20.51,20.51,0,0,0-10.54,2.59,19.38,19.38,0,0,0-7,6.93,33.06,33.06,0,0,0-3.8,9.53,45.84,45.84,0,0,0-1.2,10.36v47.92Z"/><path class="cls-1" d="M625.47,215.53a44.5,44.5,0,0,1-13-1.85,34.77,34.77,0,0,1-10.92-5.46,26.53,26.53,0,0,1-7.67-9.06,27.17,27.17,0,0,1-2.87-12.86q0-9.8,3.88-15.82a25.1,25.1,0,0,1,10.46-9.15,49.4,49.4,0,0,1,15.07-4.26A137.22,137.22,0,0,1,638.23,156h16.84a25.06,25.06,0,0,0-2-10.54,16.1,16.1,0,0,0-6.1-7q-4.08-2.59-10.73-2.59a29.44,29.44,0,0,0-7.77,1,17.51,17.51,0,0,0-6.29,3.06,10,10,0,0,0-3.52,5.18H594a32.13,32.13,0,0,1,5.27-13.42,32.63,32.63,0,0,1,10-9.25A47.59,47.59,0,0,1,622.42,117a60.37,60.37,0,0,1,14.52-1.76q21.27,0,31.26,12.21t10,34.23v52.54H656.73l-.55-12.58a28.49,28.49,0,0,1-10.27,9.25,37.72,37.72,0,0,1-11.28,3.79A63.35,63.35,0,0,1,625.47,215.53Zm5-19.24A28.51,28.51,0,0,0,643,193.61a22.51,22.51,0,0,0,8.88-7.49,18.74,18.74,0,0,0,3.33-10.92v-2.77H637.49q-4.26,0-8.23.37a30.65,30.65,0,0,0-7.21,1.48,11.4,11.4,0,0,0-5.18,3.42,9.6,9.6,0,0,0-2,6.38,10.48,10.48,0,0,0,2.13,6.75,13.1,13.1,0,0,0,5.74,4.07A21.05,21.05,0,0,0,630.46,196.29Z"/><path class="cls-1" d="M698.91,214.24v-97.5h22.57l1.3,11.84a30.35,30.35,0,0,1,9.15-8,39.34,39.34,0,0,1,10.83-4.17,49.16,49.16,0,0,1,10.36-1.2q13.88,0,21.83,6.11a33.33,33.33,0,0,1,11.37,16.28,71.13,71.13,0,0,1,3.43,22.75v53.84h-24V163.92a64.92,64.92,0,0,0-.74-9.81,27.78,27.78,0,0,0-2.78-8.69,15.91,15.91,0,0,0-5.73-6.2q-3.71-2.31-10-2.31a21.12,21.12,0,0,0-13,4,23.52,23.52,0,0,0-8,10.73A42.34,42.34,0,0,0,723,166.88v47.36Z"/><path class="cls-1" d="M853.57,215.53q-15.18,0-25.62-6.2A40.13,40.13,0,0,1,812,191.94q-5.46-11.19-5.46-26.17t5.64-26.37a41.69,41.69,0,0,1,16.47-17.76q10.81-6.37,26.17-6.38a50,50,0,0,1,20.45,4A34.83,34.83,0,0,1,889.83,131q5.55,7.77,6.84,19H873q-1.85-6.84-6.84-9.9a22,22,0,0,0-11.66-3q-9.06,0-14.24,4.26a23.87,23.87,0,0,0-7.49,10.91,40.71,40.71,0,0,0-2.32,13.51,38.87,38.87,0,0,0,2.41,13.78,22.68,22.68,0,0,0,7.68,10.36q5.26,4,13.59,4a23.63,23.63,0,0,0,12.21-3.15,15,15,0,0,0,7-9.8H897.6q-1.3,11.66-7.49,19.33a37.85,37.85,0,0,1-15.73,11.47A55.74,55.74,0,0,1,853.57,215.53Z"/><path class="cls-1" d="M957.91,215.53q-15.18,0-25.81-6.2a41,41,0,0,1-16.28-17.39q-5.64-11.19-5.64-26.17,0-14.81,5.83-26.18a43.73,43.73,0,0,1,16.46-17.85q10.63-6.48,25.62-6.48a46.61,46.61,0,0,1,19.43,3.79,40,40,0,0,1,14.06,10.55,45.57,45.57,0,0,1,8.6,15.54,56,56,0,0,1,2.68,18.59c-.12,1.61-.24,3.15-.37,4.63s-.31,3-.55,4.62H934.23a29.41,29.41,0,0,0,3.24,11.19,19.16,19.16,0,0,0,7.77,8A25.51,25.51,0,0,0,957.91,195a32.89,32.89,0,0,0,8.69-1.11,20.54,20.54,0,0,0,7.13-3.43,11.62,11.62,0,0,0,4.16-5.64h23.86a36.17,36.17,0,0,1-9,17.58,39.22,39.22,0,0,1-15.63,10A58.5,58.5,0,0,1,957.91,215.53ZM934.6,155.59h44.95A21,21,0,0,0,977,145.32a19.16,19.16,0,0,0-7.4-7.49,27.46,27.46,0,0,0-24.42.19,20.06,20.06,0,0,0-7.58,7.67A23.8,23.8,0,0,0,934.6,155.59Z"/></g></svg>