<svg xmlns="http://www.w3.org/2000/svg" viewBox="0 0 469.69 516.57"><defs><style>.cls-1{fill:#fff;}</style></defs><g id="Artwork"><path class="cls-1" d="M361.67,234.47c-3.88,3.68-7.63,7.51-11.69,11-2.93,2.51-3.87,5.59-4,9.19-.85,29.08-10.19,55.47-25.68,79.81a184.63,184.63,0,0,1-22.9,28.62c-18.55,19.31-40.15,34.48-63.5,47.29-7.19,3.94-14.58,7.53-21.91,11.2a11.42,11.42,0,0,1-10.28,0c-19-8.72-37.24-18.8-54.14-31.19-25.92-19-47.75-41.64-62.87-70.29-9.4-17.82-15.72-36.66-18-56.72a165.86,165.86,0,0,1-.94-18.52c-.09-30,0-60-.1-89.95,0-4.94,1.09-7.26,6.68-9.18,9.08-3.11,18.33-5.7,27.44-8.71,27.16-9,53.48-20.17,79.76-31.42,8.18-3.5,16.2-7.37,24.27-11.11a7.6,7.6,0,0,1,6.63,0c19.8,8.69,39.52,17.57,59.46,25.91a696.45,696.45,0,0,0,68.74,24.45,21.25,21.25,0,0,1,3.89,1.49c3.28,1.7,5.31,4,5.24,8.17-.21,13.77-.12,27.54-.08,41.32,0,7.16.14,14.32.29,21.48a5.47,5.47,0,0,1-2,4.53c-5,4.57-9.95,9.3-14.91,14-.5.47-1,.93-1.88,1.72-.13-2.63-.35-4.87-.35-7.11q.1-30.89.25-61.77c0-5.54-1.84-8-7.15-9.78-10.88-3.65-21.77-7.25-32.58-11.06-6.49-2.28-12.91-4.79-19.27-7.43-16.22-6.72-32.38-13.57-48.57-20.35-3.46-1.45-7-2.71-10.41-4.29s-6.74-.73-10,.68q-21.47,9.23-42.95,18.4a583.7,583.7,0,0,1-65.26,23.7,24,24,0,0,0-4.25,1.7,7,7,0,0,0-4.08,6.91c.13,6.38,0,12.77,0,19.16-.08,11.48-.29,22.95-.27,34.42,0,10.64.13,21.28.43,31.91.3,10.84,2.67,21.36,5.55,31.76a142.7,142.7,0,0,0,25.7,50.39,209.24,209.24,0,0,0,58.56,50.88c8.3,4.92,16.92,9.31,25.35,14a13.45,13.45,0,0,0,14.06-.2c10.33-5.89,20.75-11.61,30.86-17.85a205,205,0,0,0,40.76-33c16-16.81,28.55-35.72,35-58.26,1.85-6.47,3.38-13,5-19.55.07-.25,0-.52-.47-1.2-1.72,1.87-3.37,3.8-5.17,5.6q-20.12,20.16-40.28,40.28Q265.4,329.8,251.18,344a19.76,19.76,0,0,1-1.89,1.65c-3.34,2.59-6.52,2.45-9.51-.53Q223,328.41,206.33,311.63c-9.34-9.35-18.61-18.77-28.12-27.94-4.17-4-4.18-8.74-3.15-13.67.68-3.3,4.11-4.38,6.65-2.12,5.86,5.23,11.65,10.54,17.22,16.07,12.3,12.19,24.43,24.54,36.67,36.79a44.86,44.86,0,0,0,4.77,4,5.93,5.93,0,0,0,8-.35c7.6-7.34,15.12-14.77,22.63-22.2q22.85-22.61,45.62-45.27c9.75-9.72,19.35-19.6,29.11-29.31,6-5.93,12.09-11.71,18.2-17.5a3,3,0,0,0,.93-3.64c-2.94-8.56,1.17-16.95,7.29-21.39A20.47,20.47,0,0,1,395,184.9c7.19,4.9,10.14,11.84,8.77,20.21-1.42,8.68-7,14.16-15.54,16-3.12.68-6.6,0-9.88-.38a4,4,0,0,0-3.87,1.11c-4.14,4.22-8.39,8.32-12.6,12.47Z"/><path class="cls-1" d="M243.16,262.76V259.9q0-38.29,0-76.6a19.4,19.4,0,0,1,.3-3.31,7.25,7.25,0,0,1,7.26-6.21c11.9,0,23.8,0,35.69-.05,1.79,0,2.28.72,2.28,2.35q-.06,37.68-.07,75.35c0,5.84-.23,11.68-.22,17.52a8,8,0,0,1-2.42,6q-15.78,15.94-31.55,31.89c-3.26,3.28-6.13,3.54-9.46.39-5.87-5.53-11.49-11.33-17.22-17q-19.5-19.31-39-38.59c-6.14-6.06-12.34-12.06-18.53-18.06a13.44,13.44,0,0,0-2.45-1.93c-3.51-2-7.42-.15-7.59,3.91-.3,7.15-.32,14.32-.44,21.48a50.79,50.79,0,0,0,.1,7.71A19.82,19.82,0,0,0,161.9,270a4.34,4.34,0,0,0,1.41,1.52c5.59,4.21,7.06,9.83,6.95,16.68-.33,20.94-.14,41.88-.17,62.82,0,1.51-.14,3-.24,5-1.47-.89-2.64-1.56-3.77-2.31-13-8.66-24.75-18.69-34.4-31a58.67,58.67,0,0,1-6.27-10.05,17.21,17.21,0,0,1-1.65-7.21c-.15-13.64,0-27.27-.07-40.91q-.1-40.59-.28-81.17c0-.83,0-1.67,0-2.5.33-4.83,1.84-6.22,6.68-6.22,6.61,0,13.22,0,19.82,0a9.45,9.45,0,0,1,7.09,3q31,31,62.05,61.89c7.39,7.36,14.86,14.65,22.3,21.95A22.23,22.23,0,0,0,243.16,262.76Z"/><path class="cls-1" d="M361.83,234.31v.15h-.15Z"/></g></svg>