<svg xmlns="http://www.w3.org/2000/svg" viewBox="0 0 1145.46 331"><defs><style>.cls-1{fill:#6b01ff;}</style></defs><g id="Artwork"><path class="cls-1" d="M131.71,234.12V103.33h25.9l61.79,92.31V103.33H244V234.12H218.84l-62.53-91.57v91.57Z"/><path class="cls-1" d="M313.75,235.42q-14.81,0-25.72-6.11A42.3,42.3,0,0,1,271.1,212q-6-11.19-6-26.54t6.11-26.64a43.71,43.71,0,0,1,16.92-17.49q10.83-6.19,25.63-6.19t25.62,6.29A43,43,0,0,1,356.11,159q5.92,11.3,5.92,26.83,0,15.16-5.83,26.36a40.64,40.64,0,0,1-16.65,17.2Q328.73,235.42,313.75,235.42Zm-.19-21.83q8.88,0,14.34-4a22.81,22.81,0,0,0,8-10.36,36.91,36.91,0,0,0,2.5-13.6,38.33,38.33,0,0,0-2.5-13.78A23.52,23.52,0,0,0,328,161.23q-5.37-4.06-14.43-4.07-8.88,0-14.34,4.07a23.34,23.34,0,0,0-8,10.55,38.12,38.12,0,0,0-2.5,13.87,37.33,37.33,0,0,0,2.5,13.78,22.21,22.21,0,0,0,8,10.27Q304.68,213.58,313.56,213.59Z"/><path class="cls-1" d="M422.71,235.42q-15.16,0-25.62-6.2a40.18,40.18,0,0,1-15.91-17.39q-5.46-11.19-5.46-26.18t5.64-26.36a41.57,41.57,0,0,1,16.47-17.76q10.82-6.39,26.18-6.38a50,50,0,0,1,20.44,4A34.91,34.91,0,0,1,459,150.87q5.55,7.77,6.85,19.06H442.14q-1.86-6.85-6.85-9.9A21.84,21.84,0,0,0,423.64,157q-9.08,0-14.25,4.25a24,24,0,0,0-7.49,10.92,40.68,40.68,0,0,0-2.31,13.5,38.78,38.78,0,0,0,2.4,13.78,22.63,22.63,0,0,0,7.68,10.36q5.26,4,13.6,4a23.67,23.67,0,0,0,12.21-3.14,15.06,15.06,0,0,0,7-9.81h24.23q-1.29,11.66-7.49,19.33a37.76,37.76,0,0,1-15.73,11.47A55.74,55.74,0,0,1,422.71,235.42Z"/><path class="cls-1" d="M483,234.12V103.33h24.05v45.32a32.55,32.55,0,0,1,9.34-8,41.7,41.7,0,0,1,10.82-4.26,46.66,46.66,0,0,1,10.55-1.29q13.69,0,21.55,6.1a33,33,0,0,1,11.19,16.28,73.3,73.3,0,0,1,3.33,22.94v53.65h-24v-50a62.45,62.45,0,0,0-.75-9.62,27.52,27.52,0,0,0-2.86-8.79,17.06,17.06,0,0,0-6.11-6.47q-4-2.5-10.45-2.5a20.61,20.61,0,0,0-10.54,2.59,19.52,19.52,0,0,0-7,6.94,33.21,33.21,0,0,0-3.79,9.53,45.77,45.77,0,0,0-1.2,10.36v47.91Z"/><path class="cls-1" d="M625.47,235.42a44.5,44.5,0,0,1-13-1.85,35,35,0,0,1-10.92-5.46,26.65,26.65,0,0,1-7.67-9.07,27.13,27.13,0,0,1-2.87-12.85q0-9.81,3.88-15.82a25.12,25.12,0,0,1,10.46-9.16A49.69,49.69,0,0,1,620.47,177a137.22,137.22,0,0,1,17.76-1.11h16.84a25.1,25.1,0,0,0-2-10.55,16.16,16.16,0,0,0-6.1-7q-4.08-2.58-10.73-2.59a29,29,0,0,0-7.77,1,17.66,17.66,0,0,0-6.29,3.05,10.09,10.09,0,0,0-3.52,5.18H594a32,32,0,0,1,5.27-13.41,32.51,32.51,0,0,1,10-9.25,47.67,47.67,0,0,1,13.13-5.37,60.5,60.5,0,0,1,14.53-1.75q21.27,0,31.26,12.21t10,34.22v52.54H656.73l-.55-12.58a28.31,28.31,0,0,1-10.27,9.25,37.16,37.16,0,0,1-11.28,3.79A62.15,62.15,0,0,1,625.47,235.42Zm5-19.24A28.52,28.52,0,0,0,643,213.49a22.35,22.35,0,0,0,8.88-7.49,18.69,18.69,0,0,0,3.33-10.91v-2.78H637.49c-2.84,0-5.58.13-8.23.37a31.17,31.17,0,0,0-7.21,1.48,11.4,11.4,0,0,0-5.18,3.42,9.64,9.64,0,0,0-2,6.39,10.52,10.52,0,0,0,2.13,6.75,13.18,13.18,0,0,0,5.74,4.07A21.26,21.26,0,0,0,630.46,216.18Z"/><path class="cls-1" d="M698.91,234.12V136.63h22.57l1.3,11.84a30.52,30.52,0,0,1,9.15-8,39,39,0,0,1,10.83-4.16,49.16,49.16,0,0,1,10.36-1.2q13.88,0,21.83,6.1a33.38,33.38,0,0,1,11.37,16.28,71.19,71.19,0,0,1,3.43,22.76v53.83h-24V183.8A64.79,64.79,0,0,0,765,174a27.76,27.76,0,0,0-2.78-8.7,16,16,0,0,0-5.73-6.2q-3.71-2.31-10-2.31a21.13,21.13,0,0,0-13,4,23.46,23.46,0,0,0-8,10.73A42.28,42.28,0,0,0,723,186.76v47.36Z"/><path class="cls-1" d="M853.57,235.42q-15.18,0-25.62-6.2A40.18,40.18,0,0,1,812,211.83q-5.46-11.19-5.46-26.18t5.64-26.36a41.57,41.57,0,0,1,16.47-17.76q10.81-6.39,26.17-6.38a50,50,0,0,1,20.45,4,34.91,34.91,0,0,1,14.52,11.75q5.55,7.77,6.84,19.06H873q-1.85-6.85-6.84-9.9A21.87,21.87,0,0,0,854.49,157q-9.06,0-14.24,4.25a24,24,0,0,0-7.49,10.92,40.69,40.69,0,0,0-2.32,13.5,38.57,38.57,0,0,0,2.41,13.78,22.63,22.63,0,0,0,7.68,10.36q5.26,4,13.59,4a23.65,23.65,0,0,0,12.21-3.14,15,15,0,0,0,7-9.81H897.6q-1.3,11.66-7.49,19.33a37.76,37.76,0,0,1-15.73,11.47A55.74,55.74,0,0,1,853.57,235.42Z"/><path class="cls-1" d="M957.91,235.42q-15.18,0-25.81-6.2a41.07,41.07,0,0,1-16.28-17.39q-5.64-11.19-5.64-26.18,0-14.79,5.83-26.18a43.86,43.86,0,0,1,16.46-17.85q10.63-6.47,25.62-6.47a46.46,46.46,0,0,1,19.43,3.79,40,40,0,0,1,14.06,10.54,45.75,45.75,0,0,1,8.6,15.54,56.27,56.27,0,0,1,2.68,18.6c-.12,1.6-.25,3.14-.37,4.62s-.31,3-.55,4.63H934.23a29.41,29.41,0,0,0,3.24,11.19,19.19,19.19,0,0,0,7.77,7.95,25.4,25.4,0,0,0,12.67,2.87,32.89,32.89,0,0,0,8.69-1.11,20.79,20.79,0,0,0,7.13-3.42,11.62,11.62,0,0,0,4.16-5.64h23.86a36.14,36.14,0,0,1-9,17.57,39,39,0,0,1-15.63,10A58.24,58.24,0,0,1,957.91,235.42ZM934.6,175.48h44.95A21,21,0,0,0,977,165.21a19.16,19.16,0,0,0-7.4-7.49,27.41,27.41,0,0,0-24.42.18,20.09,20.09,0,0,0-7.58,7.68A23.71,23.71,0,0,0,934.6,175.48Z"/></g></svg>