<svg width="64" height="70" viewBox="0 0 64 70" fill="none" xmlns="http://www.w3.org/2000/svg">
<path d="M27.8975 0.938232C30.2604 -0.312742 33.1146 -0.312739 35.4775 0.938232C39.3839 3.00645 47.3866 6.72981 56.9844 8.39819C60.5251 9.01378 63.375 12.0412 63.375 15.8386V31.8542C63.3749 43.1993 57.5909 51.8654 51.2129 57.9587C44.8432 64.0442 37.6932 67.7552 34.4385 69.2644C32.681 70.0792 30.694 70.0792 28.9365 69.2644C25.6818 67.7552 18.5318 64.0442 12.1621 57.9587C5.78407 51.8654 0.000142717 43.1993 0 31.8542L0 15.8386C0 12.0412 2.84993 9.01378 6.39063 8.39819C15.9884 6.72981 23.9911 3.00645 27.8975 0.938232ZM28.8438 34.1257C22.7859 34.1257 17.875 39.0366 17.875 45.0945C17.8752 48.011 20.2396 50.3757 23.1563 50.3757H40.2188C43.1354 50.3757 45.4998 48.011 45.5 45.0945C45.5 39.0366 40.5891 34.1257 34.5313 34.1257H28.8438ZM31.6904 14.6257C27.2027 14.6257 23.5625 18.2623 23.5625 22.7507C23.5627 27.2389 27.2029 30.8757 31.6904 30.8757C36.1779 30.8756 39.8172 27.2388 39.8174 22.7507C39.8174 18.2624 36.178 14.6259 31.6904 14.6257Z" fill="white"/>
</svg>
