<svg width="68" height="68" viewBox="0 0 68 68" fill="none" xmlns="http://www.w3.org/2000/svg">
<path d="M30.3154 1.31836C32.4246 -0.439256 35.4885 -0.439178 37.5977 1.31836L44.5898 7.14453L55.082 7.14453C58.2231 7.14458 60.7695 9.69094 60.7695 12.832L60.7695 23.3242L66.5957 30.3154C68.3533 32.4245 68.3532 35.4885 66.5957 37.5977L60.7695 44.5898V55.082C60.7695 58.2231 58.2231 60.7695 55.082 60.7695H44.5898L37.5977 66.5957C35.4885 68.3532 32.4245 68.3533 30.3154 66.5957L23.3242 60.7695L12.832 60.7695C9.69094 60.7695 7.14458 58.2231 7.14453 55.082L7.14453 44.5898L1.31836 37.5977C-0.439178 35.4885 -0.439256 32.4246 1.31836 30.3154L7.14453 23.3242L7.14453 12.832C7.14453 9.69091 9.69091 7.14453 12.832 7.14453L23.3242 7.14453L30.3154 1.31836ZM47.3896 23.3164C46.0005 22.18 43.953 22.3853 42.8164 23.7744L30.4658 38.8691L26.5049 34.9092C25.2357 33.64 23.1774 33.64 21.9082 34.9092C20.6395 36.1783 20.6395 38.2358 21.9082 39.5049L28.4082 46.0049C29.0575 46.6542 29.9521 46.9989 30.8691 46.9531C31.786 46.9073 32.6403 46.4752 33.2217 45.7646L47.8467 27.8896C48.9833 26.5005 48.7788 24.453 47.3896 23.3164Z" fill="white"/>
</svg>
