<svg width="72" height="65" viewBox="0 0 72 65" fill="none" xmlns="http://www.w3.org/2000/svg">
<path d="M52 38.1846C59.1797 38.1846 65 44.0049 65 51.1846C64.9999 58.3642 59.1796 64.1846 52 64.1846C44.9324 64.1846 39.1817 58.5443 39.0039 51.5195L39 51.1846H32.5L32.4961 51.5195C32.3183 58.5443 26.5676 64.1846 19.5 64.1846C12.3204 64.1846 6.50013 58.3642 6.5 51.1846C6.5 44.0049 12.3203 38.1846 19.5 38.1846C24.3117 38.1846 28.512 40.799 30.7598 44.6846H40.7402C42.988 40.799 47.1883 38.1846 52 38.1846ZM19.5 44.6846C15.9101 44.6846 13 47.5947 13 51.1846C13.0001 54.7743 15.9102 57.6846 19.5 57.6846C23.0898 57.6846 25.9999 54.7743 26 51.1846C26 47.5947 23.0898 44.6846 19.5 44.6846ZM52 44.6846C48.4101 44.6846 45.5 47.5947 45.5 51.1846C45.5001 54.7743 48.4102 57.6846 52 57.6846C55.5898 57.6846 58.4999 54.7743 58.5 51.1846C58.5 47.5947 55.5898 44.6846 52 44.6846ZM43.1152 1.97852C48.4675 -2.30924 56.6532 0.737719 57.6104 7.61035L60.5176 28.4902C63.8907 29.478 66.9789 30.6662 69.7031 32.0273C71.3088 32.8296 71.9605 34.7821 71.1582 36.3877C70.3559 37.9932 68.4034 38.6441 66.7979 37.8418C59.3775 34.1341 48.3029 31.6846 35.751 31.6846C23.1988 31.6846 12.1235 34.134 4.70313 37.8418C3.09763 38.6439 1.14613 37.993 0.34375 36.3877C-0.458534 34.7821 0.192279 32.8297 1.79785 32.0273C4.52248 30.6659 7.61158 29.4781 10.9854 28.4902L13.8936 7.61035C14.8507 0.737719 23.0364 -2.30925 28.3887 1.97852C28.4236 2.00654 28.4578 2.03552 28.4912 2.06543C30.9591 4.27792 33.436 5.23336 35.752 5.2334C38.0679 5.2334 40.5448 4.27796 43.0127 2.06543C43.0461 2.03552 43.0803 2.00654 43.1152 1.97852Z" fill="white"/>
</svg>
