<svg width="29" height="28" viewBox="0 0 29 28" fill="none" xmlns="http://www.w3.org/2000/svg">
<path d="M26.7223 14C26.7223 10.7511 25.4317 7.63527 23.1343 5.33795C20.837 3.04063 17.7212 1.75001 14.4723 1.75001C11.3876 1.74716 8.41545 2.90814 6.14944 5.00105C3.88343 7.09396 2.49041 9.9647 2.24864 13.0399C2.00688 16.115 2.93415 19.1682 4.84525 21.5895C6.75635 24.0108 9.51058 25.622 12.5578 26.1013V17.5403H9.44977V14H12.5595V11.3015C12.5595 8.23201 14.3883 6.53451 17.1865 6.53451C18.527 6.53451 19.9288 6.77426 19.9288 6.77426V9.78951H18.3835C16.861 9.78951 16.3885 10.7345 16.3885 11.7023V14H19.7853L19.2428 17.5403H16.3868V26.1013C19.2682 25.645 21.8922 24.1755 23.7868 21.9572C25.6814 19.7389 26.7223 16.9173 26.7223 14Z" fill="#1E1D1D"/>
</svg>
