<svg width="9" height="9" viewBox="0 0 9 9" fill="none" xmlns="http://www.w3.org/2000/svg">
<path d="M3.4041 0.850998C3.4041 0.380998 3.7852 0 4.2552 0C4.7252 0 5.1062 0.380998 5.1062 0.850998V7.659C5.1062 8.129 4.7252 8.51001 4.2552 8.51001C3.7852 8.51001 3.4041 8.129 3.4041 7.659V0.850998ZM6.8083 4.255C6.8083 3.785 7.1893 3.40401 7.6593 3.40401C8.1293 3.40401 8.5103 3.785 8.5103 4.255V7.659C8.5103 8.129 8.1293 8.51001 7.6593 8.51001C7.1893 8.51001 6.8083 8.129 6.8083 7.659V4.255ZM0 5.957C0 5.487 0.3811 5.106 0.8511 5.106C1.3211 5.106 1.7021 5.487 1.7021 5.957V7.659C1.7021 8.129 1.3211 8.51001 0.8511 8.51001C0.3811 8.51001 0 8.129 0 7.659V5.957Z" fill="#FB3B52"/>
</svg>
