<svg width="61" height="60" viewBox="0 0 61 60" fill="none" xmlns="http://www.w3.org/2000/svg">
<path d="M48.9492 44.0625V48.75C48.9492 51.3388 46.8505 53.4375 44.2617 53.4375" stroke="#6C01FF" stroke-width="3" stroke-miterlimit="10" stroke-linecap="round" stroke-linejoin="round"/>
<path d="M30.668 57.6562C33.2568 57.6562 35.3555 55.5576 35.3555 52.9688C35.3555 50.3799 33.2568 48.2812 30.668 48.2812C28.0792 48.2812 25.9805 50.3799 25.9805 52.9688C25.9805 55.5576 28.0792 57.6562 30.668 57.6562Z" stroke="#6C01FF" stroke-width="3" stroke-miterlimit="10" stroke-linecap="round" stroke-linejoin="round"/>
<path d="M12.3867 20.625C12.3867 10.2697 20.3126 2.34375 30.668 2.34375C41.0234 2.34375 48.9492 10.2696 48.9492 20.625" stroke="#6C01FF" stroke-width="3" stroke-miterlimit="10" stroke-linecap="round" stroke-linejoin="round"/>
<path d="M48.9492 20.625C51.5274 20.625 53.6367 22.7344 53.6367 25.3125V25.7428C56.3614 26.7112 58.3242 29.2868 58.3242 32.3438C58.3242 35.4007 56.3614 37.9763 53.6367 38.9447V39.375C53.6367 41.9531 51.5274 44.0625 48.9492 44.0625C46.3711 44.0625 44.2617 41.9531 44.2617 39.375V25.3125C44.2617 22.7344 46.3711 20.625 48.9492 20.625Z" stroke="#6C01FF" stroke-width="3" stroke-miterlimit="10" stroke-linecap="round" stroke-linejoin="round"/>
<path d="M12.3867 20.625C9.8086 20.625 7.69922 22.7344 7.69922 25.3125V25.7428C4.97461 26.7112 3.01172 29.2868 3.01172 32.3438C3.01172 35.4007 4.97461 37.9763 7.69922 38.9447V39.375C7.69922 41.9531 9.8086 44.0625 12.3867 44.0625C14.9649 44.0625 17.0742 41.9531 17.0742 39.375V25.3125C17.0742 22.7344 14.9649 20.625 12.3867 20.625Z" stroke="#6C01FF" stroke-width="3" stroke-miterlimit="10" stroke-linecap="round" stroke-linejoin="round"/>
</svg>
