<svg width="26" height="26" viewBox="0 0 26 26" fill="none" xmlns="http://www.w3.org/2000/svg">
<g clip-path="url(#clip0_1581_61407)">
<path d="M22.1085 21.9904H18.3253V16.0644C18.3253 14.6515 18.2997 12.8323 16.357 12.8323C14.3867 12.8323 14.0845 14.3728 14.0845 15.9602V21.9904H10.3013V9.80437H13.9335V11.4705H13.9845C14.725 10.2065 16.1038 9.44902 17.5678 9.50222C21.4021 9.50222 22.1107 12.0237 22.1107 15.3069L22.1085 21.9883V21.9904ZM6.03285 8.13829C5.45168 8.13549 4.89509 7.90353 4.48394 7.49278C4.07279 7.08203 3.84029 6.52566 3.83694 5.9445C3.83694 4.74016 4.8285 3.74859 6.03285 3.74859C7.23719 3.74859 8.22663 4.74016 8.22876 5.9445C8.22876 7.14885 7.23719 8.13829 6.03285 8.13829ZM7.92448 21.9904H4.13696V9.80437H7.92448V21.9904ZM23.9917 0.23343H2.23469C1.74135 0.230565 1.26682 0.422507 0.914207 0.767548C0.561597 1.11259 0.359404 1.58284 0.351562 2.07612V23.9246C0.359404 24.4179 0.561597 24.8881 0.914207 25.2332C1.26682 25.5782 1.74135 25.7702 2.23469 25.7673H23.9938C24.4883 25.7713 24.9643 25.58 25.3186 25.2349C25.6728 24.8899 25.8765 24.419 25.8854 23.9246V2.074C25.8765 1.57997 25.6726 1.10951 25.3183 0.765148C24.964 0.420782 24.4879 0.230423 23.9938 0.235558L23.9917 0.23343Z" fill="#1E1D1D"/>
</g>
<defs>
<clipPath id="clip0_1581_61407">
<rect width="26" height="26" fill="white"/>
</clipPath>
</defs>
</svg>
