<svg width="78" height="78" viewBox="0 0 78 78" fill="none" xmlns="http://www.w3.org/2000/svg">
<path fill-rule="evenodd" clip-rule="evenodd" d="M4.875 14.625C4.875 9.24022 9.24022 4.875 14.625 4.875L26 4.875C27.7949 4.875 29.25 6.33007 29.25 8.125C29.25 9.91993 27.7949 11.375 26 11.375L14.625 11.375C12.8301 11.375 11.375 12.8301 11.375 14.625L11.375 26C11.375 27.7949 9.91993 29.25 8.125 29.25C6.33007 29.25 4.875 27.7949 4.875 26L4.875 14.625ZM48.75 8.125C48.75 6.33007 50.2051 4.875 52 4.875L63.375 4.875C68.7598 4.875 73.125 9.24022 73.125 14.625V26C73.125 27.7949 71.6699 29.25 69.875 29.25C68.0801 29.25 66.625 27.7949 66.625 26V14.625C66.625 12.8301 65.1699 11.375 63.375 11.375L52 11.375C50.2051 11.375 48.75 9.91993 48.75 8.125ZM8.125 48.75C9.91993 48.75 11.375 50.2051 11.375 52L11.375 63.375C11.375 65.1699 12.8301 66.625 14.625 66.625H26C27.7949 66.625 29.25 68.0801 29.25 69.875C29.25 71.6699 27.7949 73.125 26 73.125H14.625C9.24022 73.125 4.875 68.7598 4.875 63.375L4.875 52C4.875 50.2051 6.33007 48.75 8.125 48.75ZM69.875 48.75C71.6699 48.75 73.125 50.2051 73.125 52V63.375C73.125 68.7598 68.7598 73.125 63.375 73.125H52C50.2051 73.125 48.75 71.6699 48.75 69.875C48.75 68.0801 50.2051 66.625 52 66.625H63.375C65.1699 66.625 66.625 65.1699 66.625 63.375V52C66.625 50.2051 68.0801 48.75 69.875 48.75Z" fill="white"/>
<path fill-rule="evenodd" clip-rule="evenodd" d="M39 26C36.6053 26 34.8214 27.8641 34.8214 29.9722V32.5L43.1786 32.5V29.9722C43.1786 27.8641 41.3947 26 39 26ZM49.6786 32.5V29.9722C49.6786 24.1029 44.8107 19.5 39 19.5C33.1893 19.5 28.3214 24.1029 28.3214 29.9722V32.5H26C25.138 32.5 24.3114 32.8424 23.7019 33.4519C23.0924 34.0614 22.75 34.888 22.75 35.75L22.75 55.25C22.75 57.0449 24.2051 58.5 26 58.5L52 58.5C53.7949 58.5 55.25 57.0449 55.25 55.25V35.75C55.25 33.9551 53.7949 32.5 52 32.5H49.6786Z" fill="white"/>
</svg>
