<svg width="24" height="24" viewBox="0 0 24 24" fill="none" xmlns="http://www.w3.org/2000/svg">
<path d="M4 22.5C4 21.0467 4.36667 19.7 5.1 18.46C5.80667 17.26 6.76 16.3067 7.96 15.6C9.2 14.8667 10.5467 14.5 12 14.5C13.4533 14.5 14.8 14.8667 16.04 15.6C17.24 16.3067 18.1933 17.26 18.9 18.46C19.6333 19.7 20 21.0467 20 22.5H18C18 21.42 17.7267 20.4133 17.18 19.48C16.6467 18.5733 15.9267 17.8533 15.02 17.32C14.0867 16.7733 13.08 16.5 12 16.5C10.92 16.5 9.91333 16.7733 8.98 17.32C8.07333 17.8533 7.35333 18.5733 6.82 19.48C6.27333 20.4133 6 21.42 6 22.5H4ZM12 13.5C10.9067 13.5 9.9 13.2267 8.98 12.68C8.07333 12.1467 7.35333 11.4267 6.82 10.52C6.27333 9.6 6 8.59333 6 7.5C6 6.40667 6.27333 5.4 6.82 4.48C7.35333 3.57333 8.07333 2.85333 8.98 2.32C9.9 1.77333 10.9067 1.5 12 1.5C13.0933 1.5 14.1 1.77333 15.02 2.32C15.9267 2.85333 16.6467 3.57333 17.18 4.48C17.7267 5.4 18 6.40667 18 7.5C18 8.59333 17.7267 9.6 17.18 10.52C16.6467 11.4267 15.9267 12.1467 15.02 12.68C14.1 13.2267 13.0933 13.5 12 13.5ZM12 11.5C12.72 11.5 13.3867 11.32 14 10.96C14.6133 10.6 15.1 10.1133 15.46 9.5C15.82 8.88667 16 8.22 16 7.5C16 6.78 15.82 6.11333 15.46 5.5C15.1 4.88667 14.6133 4.4 14 4.04C13.3867 3.68 12.72 3.5 12 3.5C11.28 3.5 10.6133 3.68 10 4.04C9.38667 4.4 8.9 4.88667 8.54 5.5C8.18 6.11333 8 6.78 8 7.5C8 8.22 8.18 8.88667 8.54 9.5C8.9 10.1133 9.38667 10.6 10 10.96C10.6133 11.32 11.28 11.5 12 11.5Z" fill="#16A34A"/>
</svg>
