<svg width="24" height="24" viewBox="0 0 24 24" fill="none" xmlns="http://www.w3.org/2000/svg">
<path d="M17.8798 16.4599L22.1598 20.7399L20.7398 22.1599L16.4598 17.8799C15.6732 18.5066 14.8132 18.9866 13.8798 19.3199C12.8932 19.6666 11.8798 19.8399 10.8398 19.8399C9.21318 19.8399 7.69984 19.4332 6.29984 18.6199C4.93984 17.8199 3.86651 16.7399 3.07984 15.3799C2.25318 13.9799 1.83984 12.4666 1.83984 10.8399C1.83984 9.21325 2.25318 7.69991 3.07984 6.29991C3.86651 4.93991 4.93984 3.86658 6.29984 3.07991C7.69984 2.25325 9.21318 1.83991 10.8398 1.83991C12.4665 1.83991 13.9798 2.25325 15.3798 3.07991C16.7398 3.86658 17.8198 4.93991 18.6198 6.29991C19.4332 7.69991 19.8398 9.21325 19.8398 10.8399C19.8398 11.8799 19.6665 12.8932 19.3198 13.8799C18.9865 14.8132 18.5065 15.6732 17.8798 16.4599ZM15.8598 15.7199C16.4865 15.0799 16.9732 14.3466 17.3198 13.5199C17.6665 12.6666 17.8398 11.7732 17.8398 10.8399C17.8398 9.57325 17.5198 8.39325 16.8798 7.29991C16.2665 6.24658 15.4332 5.41325 14.3798 4.79991C13.2865 4.15991 12.1065 3.83991 10.8398 3.83991C9.57318 3.83991 8.39318 4.15991 7.29984 4.79991C6.24651 5.41325 5.41318 6.24658 4.79984 7.29991C4.15984 8.39325 3.83984 9.57325 3.83984 10.8399C3.83984 12.1066 4.15984 13.2866 4.79984 14.3799C5.41318 15.4332 6.24651 16.2666 7.29984 16.8799C8.39318 17.5199 9.57318 17.8399 10.8398 17.8399C11.7732 17.8399 12.6665 17.6666 13.5198 17.3199C14.3465 16.9732 15.0798 16.4866 15.7198 15.8599L15.8598 15.7199ZM12.0198 7.01991C11.6732 7.17991 11.3898 7.42325 11.1698 7.74991C10.9498 8.07658 10.8398 8.43991 10.8398 8.83991C10.8398 9.19991 10.9298 9.53325 11.1098 9.83991C11.2898 10.1466 11.5332 10.3899 11.8398 10.5699C12.1465 10.7499 12.4798 10.8399 12.8398 10.8399C13.2398 10.8399 13.6032 10.7332 13.9298 10.5199C14.2565 10.3066 14.4998 10.0199 14.6598 9.65991C14.7798 10.0466 14.8398 10.4399 14.8398 10.8399C14.8398 11.5599 14.6598 12.2266 14.2998 12.8399C13.9398 13.4532 13.4532 13.9399 12.8398 14.2999C12.2265 14.6599 11.5598 14.8399 10.8398 14.8399C10.1198 14.8399 9.45318 14.6599 8.83984 14.2999C8.22651 13.9399 7.73984 13.4532 7.37984 12.8399C7.01984 12.2266 6.83984 11.5599 6.83984 10.8399C6.83984 10.1199 7.01984 9.45325 7.37984 8.83991C7.73984 8.22658 8.22651 7.73991 8.83984 7.37991C9.45318 7.01991 10.1198 6.83991 10.8398 6.83991C11.2398 6.83991 11.6332 6.89991 12.0198 7.01991Z" fill="#2563EB"/>
</svg>
