<svg width="24" height="24" viewBox="0 0 24 24" fill="none" xmlns="http://www.w3.org/2000/svg">
<path d="M10.5195 14.02V16.02C9.43953 16.02 8.43286 16.2933 7.49953 16.84C6.59286 17.3733 5.87286 18.0933 5.33953 19C4.79286 19.9333 4.51953 20.94 4.51953 22.02H2.51953C2.51953 20.58 2.8862 19.2333 3.61953 17.98C4.3262 16.78 5.27953 15.8266 6.47953 15.12C7.73286 14.3866 9.07953 14.02 10.5195 14.02ZM10.5195 13.02C9.43953 13.02 8.43286 12.7466 7.49953 12.2C6.59286 11.68 5.87286 10.9666 5.33953 10.06C4.79286 9.12665 4.51953 8.11665 4.51953 7.02998C4.51953 5.94331 4.79286 4.93331 5.33953 3.99998C5.87286 3.09332 6.59286 2.37331 7.49953 1.83998C8.43286 1.29331 9.44286 1.01998 10.5295 1.01998C11.6162 1.01998 12.6262 1.29331 13.5595 1.83998C14.4662 2.37331 15.1795 3.09332 15.6995 3.99998C16.2462 4.93331 16.5195 5.94331 16.5195 7.02998C16.5195 8.11665 16.2462 9.12665 15.6995 10.06C15.1795 10.9666 14.4662 11.68 13.5595 12.2C12.6262 12.7466 11.6129 13.02 10.5195 13.02ZM10.5195 11.02C11.2529 11.02 11.9229 10.84 12.5295 10.48C13.1362 10.12 13.6195 9.63665 13.9795 9.02998C14.3395 8.42331 14.5195 7.75665 14.5195 7.02998C14.5195 6.30331 14.3395 5.63331 13.9795 5.01998C13.6195 4.40665 13.1362 3.91998 12.5295 3.55998C11.9229 3.19998 11.2562 3.01998 10.5295 3.01998C9.80286 3.01998 9.13286 3.19998 8.51953 3.55998C7.9062 3.91998 7.41953 4.40665 7.05953 5.01998C6.69953 5.63331 6.51953 6.30331 6.51953 7.02998C6.51953 7.75665 6.69953 8.42331 7.05953 9.02998C7.41953 9.63665 7.9062 10.12 8.51953 10.48C9.13286 10.84 9.79953 11.02 10.5195 11.02ZM19.9795 20.06L21.4795 21.56L20.0595 22.98L18.5595 21.48C17.9329 21.84 17.2562 22.02 16.5295 22.02C15.8029 22.02 15.1329 21.84 14.5195 21.48C13.9062 21.12 13.4195 20.6366 13.0595 20.03C12.6995 19.4233 12.5195 18.7566 12.5195 18.03C12.5195 17.3033 12.6995 16.6333 13.0595 16.02C13.4195 15.4066 13.9062 14.92 14.5195 14.56C15.1329 14.2 15.8029 14.02 16.5295 14.02C17.2562 14.02 17.9229 14.2 18.5295 14.56C19.1362 14.92 19.6195 15.4066 19.9795 16.02C20.3395 16.6333 20.5195 17.3033 20.5195 18.03C20.5195 18.7566 20.3395 19.4333 19.9795 20.06ZM16.5195 20.02C16.8795 20.02 17.2129 19.93 17.5195 19.75C17.8262 19.57 18.0695 19.3266 18.2495 19.02C18.4295 18.7133 18.5195 18.38 18.5195 18.02C18.5195 17.66 18.4295 17.3266 18.2495 17.02C18.0695 16.7133 17.8262 16.47 17.5195 16.29C17.2129 16.11 16.8795 16.02 16.5195 16.02C16.1595 16.02 15.8262 16.11 15.5195 16.29C15.2129 16.47 14.9695 16.7133 14.7895 17.02C14.6095 17.3266 14.5195 17.66 14.5195 18.02C14.5195 18.38 14.6095 18.7133 14.7895 19.02C14.9695 19.3266 15.2129 19.57 15.5195 19.75C15.8262 19.93 16.1595 20.02 16.5195 20.02Z" fill="#DC2626"/>
</svg>
