<svg width="32" height="31" viewBox="0 0 32 31" fill="none" xmlns="http://www.w3.org/2000/svg">
<path d="M16 1.27974L26.5195 3.60888C26.8096 3.67713 27.0485 3.8307 27.2361 4.06959C27.4238 4.30847 27.5177 4.57295 27.5177 4.86303V17.6349C27.5177 18.9317 27.2148 20.1432 26.6091 21.2693C26.0033 22.3955 25.163 23.3169 24.088 24.0336L16 29.4341L7.91201 24.0336C6.83703 23.3169 5.99666 22.3955 5.39092 21.2693C4.78517 20.1432 4.4823 18.9317 4.4823 17.6349V4.86303C4.4823 4.57295 4.57615 4.30847 4.76384 4.06959C4.95154 3.8307 5.19042 3.67713 5.4805 3.60888L16 1.27974ZM16 3.89042L7.04179 5.88682V17.6349C7.04179 18.5051 7.24228 19.3156 7.64327 20.0664C8.04425 20.8172 8.60308 21.4314 9.31973 21.9092L16 26.3627L22.6803 21.9092C23.3969 21.4314 23.9557 20.8172 24.3567 20.0664C24.7577 19.3156 24.9582 18.5051 24.9582 17.6349V5.88682L16 3.89042ZM21.7077 10.5195L23.4993 12.3367L15.3601 20.4759L9.93401 15.0498L11.7512 13.2326L15.3601 16.867L21.7077 10.5195Z" fill="white"/>
</svg>
