<svg width="78" height="78" viewBox="0 0 78 78" fill="none" xmlns="http://www.w3.org/2000/svg">
<path fill-rule="evenodd" clip-rule="evenodd" d="M10.5625 9.75C10.5625 6.60888 13.1089 4.0625 16.25 4.0625H61.75C64.8911 4.0625 67.4375 6.60888 67.4375 9.75V13.9777L73.6163 24.7907C73.8268 25.159 73.9375 25.5758 73.9375 26C73.9375 32.731 68.481 38.1875 61.75 38.1875C57.6394 38.1875 54.0042 36.1525 51.7967 33.035C51.0125 33.9339 50.0951 34.7075 49.1027 35.3545C46.1464 37.2816 42.4138 38.1875 39 38.1875C35.5862 38.1875 31.8536 37.2816 28.8973 35.3545C27.9049 34.7075 26.9875 33.9339 26.2033 33.035C23.9959 36.1525 20.3606 38.1875 16.25 38.1875C9.51903 38.1875 4.0625 32.731 4.0625 26C4.0625 25.5758 4.1732 25.159 4.38366 24.7907L10.5625 13.9777V9.75Z" fill="#F3F0FF"/>
<path fill-rule="evenodd" clip-rule="evenodd" d="M8.125 61.75V34.125H14.625V61.75C14.625 63.5449 16.0801 65 17.875 65H42.25C44.0449 65 45.5 66.4551 45.5 68.25C45.5 70.0449 44.0449 71.5 42.25 71.5H17.875C12.4902 71.5 8.125 67.1348 8.125 61.75Z" fill="#F3F0FF"/>
<path fill-rule="evenodd" clip-rule="evenodd" d="M17.875 56.875C17.875 55.0801 19.3301 53.625 21.125 53.625H34.125C35.9199 53.625 37.375 55.0801 37.375 56.875C37.375 58.6699 35.9199 60.125 34.125 60.125H21.125C19.3301 60.125 17.875 58.6699 17.875 56.875Z" fill="#F3F0FF"/>
<path d="M60.125 41.4375C67.7096 41.4375 73.9374 47.4824 73.9375 55.0361C73.9375 59.3454 71.91 62.7887 69.5 65.6309C67.9611 67.4456 66.0434 69.2438 64.2842 70.8936C63.4116 71.7119 62.578 72.4943 61.8486 73.2236C60.8968 74.1754 59.3532 74.1754 58.4014 73.2236C57.6915 72.5138 56.8899 71.7565 56.0527 70.9658C54.2674 69.2796 52.3188 67.4389 50.7451 65.5703C48.3468 62.7226 46.3125 59.279 46.3125 55.0361C46.3126 47.4824 52.5404 41.4375 60.125 41.4375ZM60.125 50.375C57.4326 50.375 55.25 52.5576 55.25 55.25C55.25 57.9424 57.4326 60.125 60.125 60.125H60.1543C62.8466 60.1249 65.0293 57.9424 65.0293 55.25C65.0293 52.5576 62.8466 50.3751 60.1543 50.375H60.125Z" fill="white"/>
</svg>
