<svg width="26" height="26" viewBox="0 0 26 26" fill="none" xmlns="http://www.w3.org/2000/svg">
<g clip-path="url(#clip0_1581_61388)">
<path fill-rule="evenodd" clip-rule="evenodd" d="M25.5277 13.0002C25.5277 20.0495 19.8131 25.764 12.7639 25.764C5.71457 25.764 0 20.0495 0 13.0002C0 5.9509 5.71457 0.236328 12.7639 0.236328C19.8131 0.236328 25.5277 5.9509 25.5277 13.0002ZM11.0022 13.7619L4.90124 5.60449H9.6034L13.6031 10.9524L18.5532 5.60449H19.935L14.2204 11.7781L20.6648 20.3943H15.9627L11.6198 14.5874L6.24464 20.3943H4.86279L11.0022 13.7619ZM9.09346 6.62225H6.93331L16.4723 19.3766H18.6325L9.09346 6.62225Z" fill="#1E1D1D"/>
</g>
<defs>
<clipPath id="clip0_1581_61388">
<rect width="26" height="26" fill="white"/>
</clipPath>
</defs>
</svg>
