<svg width="24" height="24" viewBox="0 0 24 24" fill="none" xmlns="http://www.w3.org/2000/svg">
<path d="M1 15C1 13.8533 1.28 12.7867 1.84 11.8C2.38667 10.84 3.12667 10.0667 4.06 9.48C4.23333 8.18667 4.69 7.00667 5.43 5.94C6.17 4.87333 7.10667 4.04 8.24 3.44C9.41333 2.81333 10.6667 2.5 12 2.5C13.3333 2.5 14.5867 2.81333 15.76 3.44C16.8933 4.04 17.83 4.87333 18.57 5.94C19.31 7.00667 19.7667 8.18667 19.94 9.48C20.8733 10.0667 21.6133 10.84 22.16 11.8C22.72 12.7867 23 13.8467 23 14.98C23 16.1133 22.7333 17.1667 22.2 18.14C21.6667 19.0867 20.9433 19.86 20.03 20.46C19.1167 21.06 18.1067 21.4 17 21.48L7 21.5C5.89333 21.4067 4.88333 21.06 3.97 20.46C3.05667 19.86 2.33333 19.0867 1.8 18.14C1.26667 17.1667 1 16.12 1 15ZM16.84 19.48C17.6133 19.4267 18.3167 19.1933 18.95 18.78C19.5833 18.3667 20.0833 17.8267 20.45 17.16C20.8167 16.4933 21 15.77 21 14.99C21 14.21 20.81 13.4833 20.43 12.81C20.05 12.1367 19.5333 11.5933 18.88 11.18L18.08 10.68L17.96 9.74C17.8267 8.75333 17.48 7.86333 16.92 7.07C16.36 6.27667 15.65 5.65 14.79 5.19C13.93 4.73 13 4.5 12 4.5C11 4.5 10.07 4.73 9.21 5.19C8.35 5.65 7.64 6.27667 7.08 7.07C6.52 7.86333 6.17333 8.75333 6.04 9.74L5.92 10.68L5.12 11.18C4.46667 11.5933 3.95 12.1367 3.57 12.81C3.19 13.4833 3 14.21 3 14.99C3 15.77 3.18333 16.4933 3.55 17.16C3.91667 17.8267 4.41667 18.3667 5.05 18.78C5.68333 19.1933 6.38667 19.4267 7.16 19.48L7.32 19.5H16.68L16.84 19.48ZM13 13.5V17.5H11V13.5H8L12 8.5L16 13.5H13Z" fill="#CA8A04"/>
</svg>
