<svg width="13" height="13" viewBox="0 0 13 13" fill="none" xmlns="http://www.w3.org/2000/svg">
<path d="M7.83534 4.49649C7.79195 3.56865 7.61992 2.75054 7.42233 2.09205C7.2834 1.62902 7.14645 1.14477 7.02462 0.832207C6.99973 0.828018 6.97466 0.822532 6.94964 0.818675C6.92417 0.814752 6.89853 0.812407 6.87309 0.808855C6.66281 1.07027 6.3864 1.49083 6.11453 1.89051C5.72788 2.45893 5.31846 3.18754 4.99775 4.05919L7.83534 4.49649ZM11.3959 5.0452C11.0179 3.21401 9.6972 1.676 7.88984 1.0525C7.97057 1.3096 8.05597 1.59565 8.14028 1.87663C8.36258 2.61746 8.5559 3.55015 8.59011 4.61281L11.3959 5.0452ZM4.24299 3.94287C4.59553 2.93989 5.05975 2.10844 5.49475 1.46892C5.65947 1.22678 5.82641 0.979848 5.98058 0.759251C4.07039 0.810648 2.34849 1.87872 1.43724 3.51048L4.24299 3.94287ZM11.1551 8.04351C11.2868 7.69668 11.3845 7.33102 11.4432 6.94964C11.502 6.56825 11.5189 6.19014 11.4978 5.81977L8.5859 5.37101C8.57082 5.73345 8.5375 6.10811 8.47825 6.4927C8.41901 6.87714 8.33787 7.24472 8.2432 7.59476L11.1551 8.04351ZM7.49712 7.47978C7.5947 7.1313 7.6776 6.7639 7.737 6.37847C7.79641 5.99289 7.82799 5.61786 7.83983 5.25603L4.76383 4.78199C4.6662 5.13058 4.58436 5.4979 4.52492 5.88346C4.46553 6.26887 4.433 6.64406 4.42113 7.00574L7.49712 7.47978ZM3.67506 6.89076C3.69016 6.52847 3.72443 6.15364 3.78367 5.76922C3.84296 5.38465 3.92303 5.01717 4.01776 4.66702L1.10778 4.21856C0.976123 4.56541 0.877454 4.93088 0.818675 5.31229C0.759897 5.69369 0.743959 6.07191 0.765075 6.44231L3.67506 6.89076ZM4.12053 10.3861C3.89818 9.64511 3.70596 8.71208 3.67182 7.64912L0.866074 7.21673C1.24377 9.04719 2.56397 10.585 4.37016 11.2091C4.2895 10.9524 4.20472 10.6667 4.12053 10.3861ZM5.38772 11.4539C5.59801 11.1927 5.87426 10.7721 6.14628 10.3722C6.53307 9.80361 6.94341 9.07481 7.26418 8.20274L4.42658 7.76543C4.46992 8.69357 4.64084 9.51202 4.83848 10.1707C4.97746 10.6339 5.11431 11.1181 5.23619 11.4305C5.26151 11.4348 5.28683 11.4393 5.31229 11.4432C5.33731 11.4471 5.36273 11.4504 5.38772 11.4539ZM6.27926 11.5033C8.19049 11.4529 9.91297 10.3839 10.8247 8.75144L8.01894 8.31905C7.66635 9.32246 7.2012 10.1541 6.76606 10.7938C6.6012 11.0362 6.43353 11.2827 6.27926 11.5033Z" fill="#0AB360"/>
</svg>
