<svg width="21" height="20" viewBox="0 0 21 20" fill="none" xmlns="http://www.w3.org/2000/svg">
<path d="M17.9199 1.66658V18.3333H16.2533V12.4999H12.9199V6.66658C12.9199 5.76658 13.1477 4.9277 13.6033 4.14992C14.0477 3.39436 14.6477 2.79436 15.4033 2.34992C16.181 1.89436 17.0199 1.66658 17.9199 1.66658ZM16.2533 3.76658C15.8199 4.01103 15.4533 4.35547 15.1533 4.79992C14.7755 5.35547 14.5866 5.9777 14.5866 6.66658V10.8333H16.2533V3.76658ZM7.91992 11.5833V18.3333H6.25326V11.5833C5.61992 11.461 5.05048 11.2027 4.54492 10.8083C4.03937 10.4138 3.64214 9.9277 3.35326 9.34992C3.06437 8.77214 2.91992 8.15547 2.91992 7.49992V2.49992H4.58659V8.33325H6.25326V2.49992H7.91992V8.33325H9.58659V2.49992H11.2533V7.49992C11.2533 8.15547 11.1088 8.77214 10.8199 9.34992C10.531 9.9277 10.1338 10.4138 9.62826 10.8083C9.1227 11.2027 8.55326 11.461 7.91992 11.5833Z" fill="#DC2626"/>
</svg>
